<svg xmlns="http://www.w3.org/2000/svg" xmlns:xlink="http://www.w3.org/1999/xlink" width="512" zoomAndPan="magnify" viewBox="0 0 384 383.999986" height="512" preserveAspectRatio="xMidYMid meet" version="1.0"><defs><clipPath id="206df9e1af"><path d="M 11.550781 11.550781 L 372.449219 11.550781 L 372.449219 372.449219 L 11.550781 372.449219 Z M 11.550781 11.550781 " clip-rule="nonzero"/></clipPath><clipPath id="ec6fde8424"><path d="M 192 11.550781 C 92.339844 11.550781 11.550781 92.339844 11.550781 192 C 11.550781 291.660156 92.339844 372.449219 192 372.449219 C 291.660156 372.449219 372.449219 291.660156 372.449219 192 C 372.449219 92.339844 291.660156 11.550781 192 11.550781 Z M 192 11.550781 " clip-rule="nonzero"/></clipPath><clipPath id="274070262f"><path d="M 0.550781 0.550781 L 361.449219 0.550781 L 361.449219 361.449219 L 0.550781 361.449219 Z M 0.550781 0.550781 " clip-rule="nonzero"/></clipPath><clipPath id="acd06f561a"><path d="M 181 0.550781 C 81.339844 0.550781 0.550781 81.339844 0.550781 181 C 0.550781 280.660156 81.339844 361.449219 181 361.449219 C 280.660156 361.449219 361.449219 280.660156 361.449219 181 C 361.449219 81.339844 280.660156 0.550781 181 0.550781 Z M 181 0.550781 " clip-rule="nonzero"/></clipPath><clipPath id="c2bc8b59a3"><rect x="0" width="362" y="0" height="362"/></clipPath><clipPath id="7dc7631631"><path d="M 23 127.925781 L 361 127.925781 L 361 256.175781 L 23 256.175781 Z M 23 127.925781 " clip-rule="nonzero"/></clipPath></defs><g clip-path="url(#206df9e1af)"><g clip-path="url(#ec6fde8424)"><g transform="matrix(1, 0, 0, 1, 11, 11)"><g clip-path="url(#c2bc8b59a3)"><g clip-path="url(#274070262f)"><g clip-path="url(#acd06f561a)"><path fill="#ffffff" d="M 0.550781 0.550781 L 361.449219 0.550781 L 361.449219 361.449219 L 0.550781 361.449219 Z M 0.550781 0.550781 " fill-opacity="1" fill-rule="nonzero"/></g></g></g></g></g></g><g clip-path="url(#7dc7631631)"><path fill="#000000" d="M 93.832031 148.503906 C 95.011719 147.078125 96.046875 145.554688 96.9375 143.933594 C 97.824219 142.308594 98.554688 140.617188 99.117188 138.855469 C 99.683594 137.089844 100.074219 135.289062 100.296875 133.453125 C 100.515625 131.613281 100.558594 129.773438 100.425781 127.925781 C 98.617188 128.101562 96.839844 128.449219 95.097656 128.96875 C 93.351562 129.484375 91.675781 130.167969 90.0625 131.007812 C 88.453125 131.851562 86.9375 132.84375 85.515625 133.976562 C 84.09375 135.113281 82.796875 136.375 81.617188 137.765625 C 80.433594 139.105469 79.394531 140.550781 78.496094 142.097656 C 77.59375 143.648438 76.855469 145.269531 76.277344 146.960938 C 75.699219 148.65625 75.292969 150.390625 75.054688 152.164062 C 74.820312 153.941406 74.757812 155.71875 74.875 157.507812 C 76.695312 157.542969 78.492188 157.371094 80.273438 156.984375 C 82.054688 156.601562 83.765625 156.019531 85.410156 155.238281 C 87.054688 154.457031 88.589844 153.5 90.011719 152.359375 C 91.433594 151.222656 92.707031 149.9375 93.832031 148.503906 M 99.976562 158.867188 C 89.484375 158.257812 80.644531 164.867188 75.625 164.867188 C 70.601562 164.867188 62.960938 159.195312 54.71875 159.34375 C 53.375 159.382812 52.039062 159.507812 50.710938 159.722656 C 49.382812 159.933594 48.078125 160.230469 46.789062 160.617188 C 45.5 161 44.242188 161.464844 43.015625 162.015625 C 41.789062 162.5625 40.601562 163.1875 39.457031 163.894531 C 38.308594 164.597656 37.214844 165.371094 36.171875 166.21875 C 35.125 167.066406 34.140625 167.976562 33.214844 168.953125 C 32.289062 169.929688 31.433594 170.960938 30.640625 172.050781 C 29.851562 173.140625 29.132812 174.273438 28.492188 175.457031 C 17.25 194.96875 25.496094 224.03125 36.433594 239.914062 C 41.753906 247.464844 48.125 256.460938 56.589844 256.167969 C 65.058594 255.875 67.679688 250.917969 77.347656 250.917969 C 87.011719 250.917969 89.859375 256.167969 98.253906 255.980469 C 106.644531 255.792969 112.488281 248.417969 117.734375 240.222656 C 121.539062 234.597656 124.460938 228.542969 126.5 222.0625 C 125.25 221.507812 124.042969 220.867188 122.878906 220.136719 C 121.71875 219.40625 120.617188 218.597656 119.570312 217.710938 C 118.527344 216.820312 117.550781 215.863281 116.644531 214.832031 C 115.738281 213.804688 114.910156 212.714844 114.160156 211.566406 C 113.40625 210.417969 112.742188 209.222656 112.164062 207.980469 C 111.585938 206.734375 111.097656 205.457031 110.703125 204.140625 C 110.308594 202.828125 110.011719 201.492188 109.808594 200.132812 C 109.605469 198.777344 109.5 197.414062 109.492188 196.039062 C 109.507812 194.820312 109.597656 193.605469 109.765625 192.398438 C 109.933594 191.191406 110.175781 190 110.488281 188.820312 C 110.804688 187.644531 111.191406 186.488281 111.652344 185.359375 C 112.113281 184.230469 112.640625 183.136719 113.238281 182.074219 C 113.835938 181.007812 114.496094 179.988281 115.21875 179.007812 C 115.941406 178.027344 116.726562 177.097656 117.566406 176.214844 C 118.40625 175.332031 119.296875 174.503906 120.242188 173.734375 C 121.183594 172.964844 122.171875 172.253906 123.203125 171.605469 C 121.886719 169.722656 120.375 168.011719 118.664062 166.476562 C 116.953125 164.9375 115.089844 163.617188 113.078125 162.511719 C 111.0625 161.40625 108.949219 160.542969 106.738281 159.925781 C 104.523438 159.308594 102.269531 158.949219 99.976562 158.851562 M 166.890625 143.722656 L 166.890625 165.144531 L 183.972656 165.144531 L 183.972656 179.292969 L 166.890625 179.292969 L 166.890625 229.980469 C 166.890625 237.542969 170.261719 241.402344 177.753906 241.402344 C 179.8125 241.363281 181.859375 241.214844 183.898438 240.949219 L 183.898438 255.207031 C 180.546875 255.75 177.175781 256.003906 173.78125 255.957031 C 156.097656 255.957031 149.28125 249.078125 149.28125 231.828125 L 149.28125 179.628906 L 135.867188 179.628906 L 135.867188 165.445312 L 148.90625 165.445312 L 148.90625 143.738281 Z M 243.695312 255.179688 L 224.960938 255.179688 L 193.488281 165.445312 L 212.148438 165.445312 L 234.253906 237.542969 L 234.703125 237.542969 L 256.804688 165.445312 L 275.089844 165.445312 Z M 325.96875 255.179688 L 309.78125 255.179688 L 309.78125 218.410156 L 275.015625 218.410156 L 275.015625 202.214844 L 309.707031 202.214844 L 309.707031 165.445312 L 325.894531 165.445312 L 325.894531 202.214844 L 360.660156 202.214844 L 360.660156 218.410156 L 325.96875 218.410156 Z M 325.96875 255.179688 " fill-opacity="1" fill-rule="nonzero"/></g></svg>