<?xml version="1.0" encoding="UTF-8" standalone="no"?>
<!-- Created with Inkscape (http://www.inkscape.org/) -->

<svg
   width="210"
   height="100"
   viewBox="0 0 210 100"
   version="1.1"
   id="svg1558"
   inkscape:version="1.2.2 (732a01da63, 2022-12-09)"
   sodipodi:docname="Discovery Channel 2000  logo.svg"
   xmlns:inkscape="http://www.inkscape.org/namespaces/inkscape"
   xmlns:sodipodi="http://sodipodi.sourceforge.net/DTD/sodipodi-0.dtd"
   xmlns="http://www.w3.org/2000/svg"
   xmlns:svg="http://www.w3.org/2000/svg"
   xmlns:rdf="http://www.w3.org/1999/02/22-rdf-syntax-ns#"
   xmlns:cc="http://creativecommons.org/ns#"
   xmlns:dc="http://purl.org/dc/elements/1.1/">
  <title
     id="title1586">Discovery Channel 2000 logo</title>
  <sodipodi:namedview
     id="namedview1560"
     pagecolor="#ffffff"
     bordercolor="#111111"
     borderopacity="1"
     inkscape:showpageshadow="0"
     inkscape:pageopacity="0"
     inkscape:pagecheckerboard="1"
     inkscape:deskcolor="#d1d1d1"
     inkscape:document-units="mm"
     showgrid="false"
     inkscape:zoom="2.9404901"
     inkscape:cx="197.92619"
     inkscape:cy="78.218253"
     inkscape:window-width="1920"
     inkscape:window-height="1009"
     inkscape:window-x="-8"
     inkscape:window-y="-8"
     inkscape:window-maximized="1"
     inkscape:current-layer="layer1" />
  <defs
     id="defs1555" />
  <g
     inkscape:label="Capa 1"
     inkscape:groupmode="layer"
     id="layer1">
    <path
       id="rect1261-5-5"
       style="fill:#000000;fill-opacity:0.952941;stroke-width:0.859437"
       d="M 2.3479895,1.4850426 V 44.350422 H 14.833391 c 7.603529,0 10.88268,-3.395932 10.88268,-11.551708 V 13.025721 c 0,-8.0856579 -3.279151,-11.5406784 -10.88268,-11.5406784 z M 51.115115,6.445752 c -7.112857,0 -10.568379,3.1911718 -10.568379,9.65675 0,5.646314 3.70284,7.780616 9.452729,12.364095 2.351574,1.823051 3.275278,2.955821 3.275278,6.155393 0,0.291692 -0.01468,0.551569 -0.03312,0.8032 a 31.494859,31.494859 0 0 0 -4.074806,0.290401 c -0.02596,-0.449811 -0.03162,-0.955529 -0.03162,-1.540226 v -5.203321 h -8.715534 v 4.576571 c 0,1.726863 0.132921,3.212144 0.402517,4.503048 a 31.494859,31.494859 0 0 0 -3.367178,1.740566 31.494859,31.494859 0 0 1 0.128666,-0.08089 V 7.0044973 H 28.868264 V 44.352256 h 2.492302 A 31.494859,31.494859 0 0 1 32.294137,43.52884 31.494859,31.494859 0 0 0 25.42009,52.492669 H 2.5170195 V 72.94204 H 22.499535 A 31.494859,31.494859 0 0 0 53.337176,98.407247 31.494859,31.494859 0 0 0 84.248333,72.94204 H 208.21274 V 52.492669 H 81.267191 a 31.383439,31.494859 0 0 1 0.03464,0.08089 31.494859,31.494859 0 0 0 -5.541517,-7.664377 c 0.07536,0.0033 0.149673,0.0075 0.229779,0.0075 8.475835,0 10.820193,-3.827844 10.820193,-11.987301 v -3.71276 h -8.833254 v 4.960709 c 0,2.572211 -0.07141,3.896524 -1.986864,3.896524 -1.915418,0 -1.973981,-1.257885 -1.973981,-3.896524 V 17.168661 c 0,-2.564829 0.05854,-3.881814 1.973981,-3.881814 1.915434,0 1.986864,1.246867 1.986864,3.881814 v 4.95887 h 8.833328 v -3.698014 c 0,-8.163166 -2.344361,-11.9817939 -10.820192,-11.9817939 v -0.00187 c -8.468551,0 -10.809155,3.8813689 -10.809155,11.9817949 v 14.499824 c 0,1.920859 0.13582,3.592733 0.444787,5.03974 a 31.494859,31.494859 0 0 0 -3.545243,-1.301423 c 0.102688,-0.790478 0.159875,-1.634079 0.159875,-2.549276 0,-5.210843 -1.911443,-8.59582 -6.425581,-11.990984 -3.529169,-2.697681 -6.614891,-4.074423 -6.614891,-6.521154 0,-1.572115 0.486788,-2.319533 1.91517,-2.319533 1.235759,0 1.973997,0.80771 1.973997,2.003398 v 1.878416 1.564123 h 8.723065 v -2.442677 c 0,-6.9600914 -3.27888,-9.8423843 -10.697047,-9.8423843 z m 49.210095,0 c -8.461285,0 -10.814682,3.88321 -10.814682,11.983633 v 14.499826 c 0,8.15578 2.353397,11.985463 10.814682,11.985463 8.47582,0 10.8257,-3.829683 10.8257,-11.985463 V 18.429385 c 0,-8.16685 -2.34988,-11.983633 -10.8257,-11.983633 z m 48.59803,0 c -8.47582,0 -10.82385,3.88321 -10.82387,11.983633 v 14.499826 c 0,8.15578 2.34805,11.985463 10.82387,11.985463 8.46855,0 10.82019,-3.829683 10.82019,-11.985463 V 29.21649 h -8.71938 v 4.958873 c 0,2.52054 -0.0617,3.898355 -2.10081,3.898355 -2.04262,0 -2.10817,-1.25972 -2.10817,-3.898355 v -7.089089 h 12.92836 v -8.656889 c 0,-8.16685 -2.35164,-11.983633 -10.82019,-11.983633 z m 27.57889,0.1213158 c -2.59872,0 -4.39398,0.999763 -5.62973,2.4353213 V 7.0063466 h -8.22128 V 44.35227 h 8.71937 V 17.164865 c 0,-2.56114 0.0548,-3.881817 1.97399,-3.881817 1.92269,0 1.97951,1.246869 1.97951,3.881817 v 7.666217 h 8.71754 v -6.912646 c 0,-7.402942 -1.4224,-11.3513651 -7.5394,-11.3513682 z M 114.2332,7.0045108 V 22.123735 c 0,9.672532 2.10079,17.2059 5.8117,22.228535 h 9.76887 c 3.71089,-5.022643 5.80433,-12.556014 5.80433,-22.228545 V 7.0045005 h -8.7157 V 20.881249 c 0,6.838307 -0.67646,12.291409 -1.97399,16.306562 -1.24303,-4.015153 -1.98135,-9.468255 -1.98135,-16.306562 V 7.0045005 Z m 72.76196,0.00187 V 20.430997 c 0,8.539581 1.72998,15.754264 5.80434,23.031728 h -5.80434 v 5.203323 h 13.66356 C 207.0919,38.576504 208.3819,30.158885 208.3819,20.430997 V 7.0063882 h -8.71571 V 20.807784 c 0,7.163068 -0.73823,13.310623 -1.97397,18.015881 -1.24304,-4.89347 -1.98135,-10.989359 -1.98135,-18.015881 V 7.0063882 Z M 11.681254,9.6383743 h 1.542064 c 3.216599,0 3.030828,1.5059837 3.030828,5.0893657 v 16.376408 c 0,3.631355 0.185767,5.082015 -3.030828,5.082015 h -1.542064 z m 88.643956,3.6465507 c 1.92269,0 1.9795,1.246869 1.9795,3.881817 v 17.008675 c 0,2.572208 -0.0568,3.898354 -1.9795,3.898354 -1.908155,0 -1.974001,-1.259722 -1.974001,-3.898354 V 17.16669 c 0,-2.564829 0.06584,-3.881813 1.974001,-3.881813 z m 48.59803,0 c 2.03899,0 2.10081,1.247729 2.10081,4.133617 v 2.82682 h -4.20898 v -2.826815 c 0,-2.885889 0.0655,-4.133618 2.10817,-4.133622 z M 55.496864,37.617907 c 2.667509,0.0384 5.300485,0.666408 7.833479,1.477737 0.02785,0.573025 0.112706,1.147316 0.04044,1.720346 -0.292984,0.246644 -0.702638,0.2058 -1.056839,0.211372 -0.593437,-0.0094 -1.272936,-0.134502 -1.567792,-0.716812 -1.051489,-0.265202 -2.301488,-0.510138 -3.297336,0.02184 0.189124,0.233694 0.43634,0.433081 0.558743,0.716817 -0.26332,0.615687 -0.765459,1.086555 -1.082572,1.672561 1.001405,-0.619389 2.036444,-1.382839 3.2808,-1.306809 0.0983,0.272619 0.04047,0.496515 -0.174592,0.674545 -0.617541,0.574879 -1.435932,0.870362 -2.209255,1.170792 -0.762173,0.304127 -1.584655,0.104388 -2.374665,0.145194 -0.283685,0.289333 -0.442846,0.667866 -0.661675,1.005379 -1.656047,-0.676886 -2.90789,-2.042888 -4.537971,-2.769838 -0.246644,-0.09641 -0.519702,-0.07879 -0.77747,-0.112104 -0.420964,-0.454345 -0.802964,-0.944513 -1.242475,-1.382159 -0.632379,0.969874 -0.848166,2.216254 -0.338156,3.288145 0.322684,0.586004 -0.255491,1.079595 -0.667186,1.413404 -1.058902,0.802982 -2.212976,1.495392 -3.448057,1.990533 -0.960606,0.411695 -2.055734,0.361346 -2.990391,0.858334 -1.333365,0.689863 -2.57037,1.556384 -3.918568,2.22028 -1.529939,0.845637 -3.184769,1.445827 -4.683171,2.347102 -0.448786,0.231813 -0.721538,0.660059 -1.01825,1.047648 -0.521113,0.220706 -1.140996,0.208021 -1.597196,0.58448 -1.476166,1.146057 -2.655895,2.661232 -3.481138,4.333959 -0.419105,0.828954 -0.698527,1.720257 -1.100948,2.556629 0.235525,-1.153486 0.412056,-2.326119 0.786659,-3.446212 0.934647,-2.585137 2.289254,-4.999352 3.834019,-7.267375 1.253621,-1.804399 2.640742,-3.54402 4.34315,-4.946006 1.48914,-1.248053 2.950865,-2.578324 4.708897,-3.446213 3.708942,-2.173447 7.883688,-3.543312 12.158245,-3.992089 1.173878,-0.153964 2.358693,0.0019 3.536272,-0.04962 0.382261,-0.01958 0.763987,-0.02786 1.145066,-0.02184 z m -8.377516,2.466568 c -0.99584,0.202149 -2.01911,0.37279 -2.938925,0.823412 -0.344894,0.1502 -0.564601,0.458464 -0.733355,0.781145 1.340781,-0.209527 2.52066,-0.92767 3.67228,-1.604557 z m -11.546191,0.884068 a 31.494859,31.494859 0 0 0 -2.488622,1.863707 31.494859,31.494859 0 0 1 2.488622,-1.863707 z M 69.21004,43.91299 c 0.194319,0.0075 0.43584,0.208585 0.602851,0.264638 0.819681,0.576741 1.605032,1.316681 1.964805,2.273587 0.176174,0.430242 -0.0574,1.235923 -0.624912,1.145058 -0.955049,-0.420966 -1.519658,-1.390775 -1.972152,-2.282773 -0.129835,-0.387593 -0.421071,-0.869593 -0.194846,-1.257177 0.0574,-0.109507 0.135933,-0.14666 0.224209,-0.143348 z m -18.455162,0.663508 c 0.871606,0.307853 1.746139,0.633938 2.565817,1.066028 0.172485,0.07604 0.268177,0.213329 0.286736,0.406195 -0.22259,0.317113 -0.682108,0.525429 -0.657997,0.964939 0.190969,0.393151 0.610267,0.592861 1.016407,0.683729 0.8753,0.250371 1.767638,-0.04379 2.650354,-0.08089 -0.261475,0.419106 -0.532581,0.86922 -0.994338,1.093601 -0.402427,0.207683 -0.962096,-0.08432 -1.28107,0.306951 -0.886429,0.906828 -1.093061,2.209727 -1.360112,3.396583 -0.12607,0.628671 -0.526913,1.183515 -0.591821,1.819602 0.300437,1.008825 1.138971,1.809473 2.030963,2.328722 0.917963,0.298555 1.923478,0.225299 2.850708,0.520151 0,0.115002 -5.6e-5,0.34817 0.0019,0.465007 -0.877167,0.582308 -1.93953,0.430407 -2.920554,0.601018 -0.767729,0.10943 -1.099321,0.862486 -1.48876,1.429949 -0.617533,-0.673176 -1.499042,-1.01236 -2.409585,-0.847306 0.101939,0.621237 0.50559,1.240505 0.281201,1.876575 -0.278189,0.7214 -0.793191,1.312736 -1.297614,1.885774 -0.73807,0.784434 -1.5208,1.6865 -2.67242,1.77181 -0.233694,0.602712 -0.0908,1.495589 -0.832604,1.760784 -0.72139,0.407979 -1.151771,-0.45444 -1.637644,-0.816068 -0.574885,-0.265202 -1.220558,-0.01731 -1.825113,-0.102917 -0.58971,-0.369062 -0.181709,-1.408314 0.40619,-1.567794 0.673182,-0.150238 0.832692,0.800717 1.444646,0.873042 0.257786,-0.02032 0.512385,-0.0768 0.766446,-0.126823 0.259631,-0.530379 0.445072,-1.156532 0.205875,-1.727698 -0.231776,-0.506268 -0.805886,-0.733183 -1.330704,-0.751731 -0.628657,0.07415 -1.118323,0.502719 -1.644984,0.808708 -0.02221,-1.025526 0.497422,-1.997975 0.36575,-3.021643 0.01845,-0.352349 -0.524428,-0.33108 -0.663511,-0.09558 -0.654635,0.823378 -0.276157,1.945266 -0.430088,2.902172 -0.307854,0.02447 -0.64257,-0.159384 -0.931861,-0.0143 -0.127952,0.450629 -0.195485,0.934239 -0.534844,1.286585 -0.591614,-0.0501 -1.416005,-0.348284 -1.334412,-1.082646 0.06674,-1.066322 -0.108415,-2.255856 -0.939213,-3.008772 -0.439487,-0.439631 -1.110792,-0.155847 -1.656005,-0.213329 -0.422822,-0.394997 -0.956132,-0.631947 -1.532869,-0.667177 -0.437651,-0.593427 -0.39459,-1.391308 -0.04412,-2.016268 0.242902,0.0061 0.484899,0.0094 0.727841,0.0143 0.11126,-0.611984 0.01333,-1.230202 -0.261011,-1.784681 -1.116388,-0.08349 -2.079842,0.6658 -3.198084,0.613885 0.791861,-0.916119 1.879728,-1.883639 3.179708,-1.709322 1.413101,0.168759 2.237618,-1.213759 3.387386,-1.755272 0.276308,-0.224396 0.583781,-0.02862 0.869372,0.0588 -0.191006,1.368604 -1.355177,2.236658 -2.323209,3.082295 -0.276331,0.209528 -0.467745,0.498864 -0.573446,0.825257 0.426529,0.172485 0.914038,0.254474 1.264535,0.575289 0.222514,0.265203 0.34226,0.594633 0.505439,0.898768 0.838217,-0.03727 1.089243,-0.940466 1.165277,-1.626606 0.103854,-0.608272 -0.03426,-1.404216 0.527503,-1.817769 0.645355,-0.330103 1.466275,-0.390416 2.135735,-0.09558 0.812265,0.452489 1.022342,1.43505 1.595365,2.100813 0.339399,0.298554 0.778803,0.035 1.042136,-0.227936 0.999568,-0.917962 0.803991,-2.757859 -0.319825,-3.484813 -0.493295,-0.337554 -1.045004,-0.02109 -1.549424,0.101075 -0.509968,-0.322686 0.01807,-1.046446 0.450311,-1.181826 0.565613,-0.276308 1.074743,0.187016 1.542064,0.446632 0.524826,0.363492 1.249107,0.245816 1.744247,-0.113948 0.886433,-0.634224 1.36076,-1.652882 2.113679,-2.418781 0.357921,0.958762 1.486732,0.980959 2.336073,0.8326 -0.250371,-0.305971 -0.63902,-0.549498 -0.705782,-0.968608 0.649068,-0.439506 1.437945,-0.568509 2.192698,-0.711301 -0.383872,-1.335221 -1.241988,-2.460527 -1.70931,-3.760506 z m -4.503058,3.359826 c 0.41173,0.0049 0.635257,0.460056 0.764602,0.803197 -0.398712,0.680595 -1.296467,-0.272844 -0.805031,-0.80136 0.01318,-8.09e-4 0.0271,-0.0019 0.04044,-0.0019 z m 21.197431,1.312319 c 0.792575,0.01393 1.541456,0.545203 1.948264,1.214903 0.378305,0.634228 0.909091,1.318218 0.782979,2.100816 -0.157616,0.493281 -0.784895,0.436239 -1.189177,0.363906 -1.292559,-0.196579 -2.18468,-1.366448 -3.501355,-1.479572 -1.448345,-0.122419 -2.835971,0.531783 -4.286168,0.463166 0.04638,-0.597138 0.613041,-0.902842 1.121169,-1.066025 1.214674,-0.380187 2.525294,-0.550353 3.775215,-0.253647 0.278189,-0.0019 0.680089,0.189576 0.88223,-0.05699 0.01694,-0.411699 -0.228348,-0.864196 0.02409,-1.238796 0.147829,-0.035 0.296222,-0.05045 0.442951,-0.0478 z m -16.826712,1.573309 c -0.580709,0.03426 -1.112974,0.384147 -1.646824,0.591833 -0.77146,0.311579 -1.506115,0.993647 -1.415249,1.898633 0.313387,0.113121 0.629575,0.217469 0.931857,0.358372 0.0061,0.422818 -0.06588,0.841723 -0.09558,1.262689 0.988436,-0.758476 1.719425,-2.007553 3.063915,-2.159624 0.09271,-0.688014 0.09613,-1.542166 -0.586319,-1.944588 -0.08508,-0.0094 -0.168833,-0.01205 -0.251801,-0.0075 z m 21.649571,0.126822 c 0.0783,9.42e-4 0.157126,0.01205 0.237081,0.03464 0.309699,0.391317 0.311845,0.939174 0.584474,1.356433 0.485866,0.749205 1.197034,1.328641 1.966639,1.768141 0.623092,0.376463 1.430419,0.304502 1.997884,0.788492 0.890145,0.730654 1.594413,1.725158 1.907822,2.83784 0.20215,0.561909 -0.303787,1.108382 -0.860174,1.099117 -0.767752,0.142823 -1.388303,-0.58756 -1.523683,-1.273726 -0.0946,-0.623107 -0.05665,-1.272102 -0.299571,-1.867384 -0.860489,-0.191081 -1.62824,-0.636163 -2.271744,-1.231448 -0.981009,-0.888288 -2.063062,-1.795665 -2.587875,-3.040021 0.195864,-0.287789 0.509717,-0.476933 0.849143,-0.472359 z m -13.953945,0.534852 c 0.246079,-0.0075 0.495235,0.08865 0.67453,0.30695 0.487736,0.437666 -0.389986,0.823198 -0.764597,0.847309 -0.409824,0.105704 -0.4945,-0.415192 -0.691075,-0.643293 0.153324,-0.320238 0.464743,-0.50148 0.781142,-0.510955 z m 4.183243,1.332534 c -0.400571,1.164603 -1.727401,2.231414 -3.001418,1.80674 -0.189123,-0.398711 0.07612,-0.804854 0.400673,-1.03111 0.32453,0.01844 0.645916,0.07695 0.970458,0.102917 0.511835,-0.357957 0.945984,-0.887829 1.630287,-0.87856 z m -6.370437,0.249956 c 0.01731,-3.64e-4 0.03388,-9.41e-4 0.05143,0 1.010695,0.274501 1.809869,1.027993 2.490455,1.790192 -1.01254,0.11681 -2.145123,-0.02898 -2.949951,-0.700267 -0.483262,-0.346777 -0.13036,-1.078274 0.408032,-1.089925 z m -7.366628,2.494138 c -0.606409,0.637947 -0.899205,1.501438 -1.056835,2.35078 -0.16507,0.669466 0.141842,1.412008 0.727836,1.775488 0.51926,-1.303698 0.443975,-2.755801 0.328973,-4.126268 z m -2.587874,0.257334 c -0.0271,0.0019 -0.05451,0.01129 -0.08089,0.02786 -0.56933,0.248526 -1.201465,0.721954 -1.266371,1.384 0.665755,0.170641 1.313927,-0.365975 1.547583,-0.95759 0.175234,-0.146021 -0.0094,-0.465906 -0.200379,-0.453985 z m -5.212512,0.145231 c -0.17305,0.0042 -0.33842,0.04337 -0.466855,0.123134 -0.242954,0.118654 -0.342222,0.313726 -0.299571,0.584478 0.337554,0.519247 1.163165,0.556775 1.606387,0.158067 0.253119,-0.556349 -0.320879,-0.875778 -0.839947,-0.865689 z m 58.260306,1.398704 c 2.454687,0 5.122767,0.931843 5.232707,3.545466 l 0.0218,0.345535 h -2.96649 l -0.0128,-0.317942 c -0.0497,-0.948538 -1.19957,-1.374808 -2.246003,-1.374808 -0.482421,0 -2.896666,0.146096 -2.896666,3.080458 0,2.937766 2.414245,3.091482 2.896666,3.091482 1.589163,0 2.266273,-0.781138 2.369143,-1.44649 l 0.0423,-0.279395 h 2.93894 l -0.0218,0.354758 c -0.16673,2.296302 -2.11152,3.562006 -5.495567,3.562006 -3.614625,0 -5.686715,-1.924901 -5.686715,-5.282353 0,-3.306248 2.174467,-5.278679 5.824563,-5.278679 z m -55.444527,0.226053 c -0.255943,0.287488 -0.478069,0.603519 -0.661671,0.942891 0.369064,0.09457 0.744726,0.172147 1.119333,0.24258 0.179863,-0.484018 -0.122005,-0.870239 -0.457662,-1.185497 z m 65.797854,0.02184 h 2.88013 v 3.824837 h 4.64273 v -3.824712 h 2.87828 v 10.061106 h -2.87828 v -4.039882 h -4.64273 v 4.039879 h -2.88013 z m 19.95496,0 h 3.17787 l 5.35035,10.061102 h -3.36718 l -1.13035,-2.104508 h -5.20516 l -1.03111,2.104486 h -3.13009 z m 12.78314,0 h 3.60797 l 5.04341,6.581809 v -6.581812 h 2.6669 V 67.67052 h -3.46458 l -5.1923,-6.717817 v 6.717817 h -2.6614 z m 16.84878,0 h 3.60059 l 5.05078,6.581809 v -6.581812 h 2.6669 V 67.67052 h -3.47194 l -5.1831,-6.717686 v 6.717813 h -2.66323 z m 16.81199,0 h 8.42348 v 2.190873 h -5.55438 v 1.558604 h 5.35771 v 2.198232 h -5.35771 v 1.913333 h 5.80802 v 2.201901 h -8.67712 z m 13.83633,0 h 2.8746 v 7.861042 h 5.37977 v 2.201901 h -8.25437 z M 59.102984,57.774858 c 0.0739,-3.77e-4 0.153739,0.01581 0.238966,0.04962 0.493284,0.810406 0.808881,1.801974 0.582637,2.749619 -1.090442,-0.113157 -2.067867,-1.647994 -1.225934,-2.551117 0.107097,-0.16443 0.241751,-0.247361 0.404354,-0.248151 z M 40.752593,58.18289 c -0.30439,-0.0042 -0.61029,0.02333 -0.911642,0.08635 -0.467334,1.038507 -0.149825,2.702806 1.198358,2.799242 0.18728,-0.934654 0.571163,-1.827609 0.621237,-2.786375 -0.300437,-0.06019 -0.603593,-0.09531 -0.907953,-0.09927 z m -12.34388,0.235199 c -0.16691,0.704709 -0.610297,1.28692 -1.01457,1.86923 -0.799267,1.13122 -1.552855,2.299419 -2.198216,3.527087 -0.168766,0.302282 -0.339132,0.626936 -0.645134,0.812386 -0.168765,-0.567469 -0.190358,-1.174842 -0.0717,-1.753435 0.176168,-0.904984 0.985913,-1.455062 1.520005,-2.14492 0.780731,-0.79 1.423023,-1.757702 2.409594,-2.310348 z m 33.960365,1.060521 c 0.536248,-0.0042 0.865065,0.476884 1.077057,0.91164 -0.598985,0.356074 -1.31085,0.177943 -1.683602,-0.4062 0.170603,-0.183628 0.354833,-0.353402 0.553244,-0.503606 0.01769,-9.38e-4 0.03577,-0.0019 0.0533,-0.0019 z m 68.589742,0.887746 -1.48878,2.999581 h 2.97755 z m -96.626298,1.451983 c -0.146492,0.517399 -0.32712,1.064594 -0.74622,1.431786 -0.42468,0.08349 -0.241803,-0.378621 -0.126819,-0.584481 0.218836,-0.34866 0.565203,-0.587685 0.873039,-0.847305 z m 1.108309,1.051321 c 0.669458,0.550786 0.06642,1.376121 -0.376777,1.849006 -0.252193,-0.654626 -0.162875,-1.372401 0.376777,-1.849006 z m -5.657304,0.617562 c -0.956911,0.526676 -1.868101,1.137926 -2.615453,1.940908 -0.04261,-0.485861 -0.140667,-1.034719 0.176451,-1.455683 0.78259,-0.272619 1.630446,-0.312747 2.439002,-0.485225 z m 39.169197,1.876577 c 1.246197,0.517393 2.282994,1.420306 3.291822,2.297477 1.450188,1.355625 2.823387,2.828014 3.828515,4.552679 0.71953,1.262892 1.544244,2.471817 2.538244,3.534435 0.45435,0.502568 0.963965,1.180993 0.661675,1.893123 -0.420955,0.281841 -0.973996,0.188822 -1.402379,0.448462 -0.841933,0.535942 -0.925672,1.765971 -1.828796,2.216612 -0.853056,-0.03881 -1.658805,-0.455611 -2.378339,-0.893264 -0.548934,-0.320841 -0.775397,-0.932437 -1.009058,-1.486931 -1.049623,0.526675 -1.858422,1.523961 -3.073095,1.700136 -0.556351,0.179863 -1.316155,0.0571 -1.505306,-0.578964 -0.307854,-0.981023 -0.534252,-2.249642 0.224246,-3.082287 0.255905,-0.272619 0.267913,-0.656758 0.31798,-1.003543 -1.197994,0.454346 -1.876017,1.619058 -2.766161,2.468414 -0.456201,-0.934662 -1.316188,-1.7381 -1.295786,-2.843365 0.864186,0.276308 1.190078,1.176036 1.709327,1.826952 0.365335,-0.864185 0.129645,-1.811562 0.226052,-2.714701 -0.02786,-0.307854 0.199965,-0.515341 0.450299,-0.641448 0.563762,0.0061 0.831314,0.577727 1.185502,0.922664 0.689867,-0.337555 1.107422,-1.041304 1.825108,-1.341727 0.92909,0.554487 1.123537,1.742735 1.064194,2.738594 0.01317,0.643497 -0.443921,1.136728 -0.748059,1.659694 1.448357,0.01318 2.839931,-1.209448 3.017966,-2.65037 1.040351,0.170566 1.139712,1.360567 1.534712,2.135735 0.565626,-1.548475 0.599633,-3.329761 -0.07353,-4.850428 -0.563758,-1.46689 -1.593686,-2.711585 -2.815786,-3.681473 -0.912378,-0.700993 -2.014634,-1.159654 -2.817625,-1.999723 -0.04085,-0.155772 -0.122795,-0.470969 -0.161718,-0.626753 z m -39.284993,0.246306 c 0.81678,-0.0128 1.622483,0.364885 2.20925,0.928183 -0.522956,0.337518 -1.216928,0.585947 -1.402381,1.246144 -0.207709,0.688011 -0.194463,1.423897 -0.441116,2.104491 -0.901266,-0.459895 -1.022467,-1.581896 -1.167113,-2.475744 -0.01333,-0.576737 -0.208963,-1.369549 0.347383,-1.755277 0.150686,-0.03011 0.302708,-0.0454 0.453985,-0.0478 z m 9.748646,1.446487 c 0.819437,0.0019 1.635472,0.150915 2.376511,0.510962 -0.235539,0.688006 -0.929979,0.98856 -1.554939,1.225929 -0.75106,0.265203 -1.547756,0.524808 -2.354447,0.413547 -0.517395,-0.08711 -1.056793,-0.368574 -1.26821,-0.876717 -0.118669,-0.662031 0.612903,-0.974895 1.135868,-1.095439 0.541676,-0.113007 1.104546,-0.17975 1.665217,-0.178282 z m 8.081591,0.551395 c 0.432095,0 1.055704,-0.0068 1.183667,0.520149 0.0075,0.836376 -0.549325,1.574554 -1.196529,2.054862 -0.356076,-0.686154 -0.75027,-1.422891 -0.707618,-2.216605 -0.0061,-0.394999 0.457145,-0.338006 0.72048,-0.358371 z m -2.641167,0.204031 c 0.448692,-0.0042 0.87995,0.109733 1.18733,0.483391 -0.176213,0.20215 -0.254324,0.590204 -0.593666,0.566098 -0.573027,0.05006 -0.982169,-0.489627 -0.906131,-1.029267 0.103968,-0.01167 0.208924,-0.0192 0.312483,-0.02032 z m -10.845926,0.284891 c 0.410331,-0.0068 0.8035,0.160439 1.088082,0.578959 -0.726951,0.778879 -1.754978,1.295236 -2.821294,1.356434 -0.465468,0.05371 -0.216054,-0.498137 -0.09926,-0.700272 0.316034,-0.662919 1.10099,-1.223757 1.832467,-1.235121 z m 9.052056,1.194681 c 0.914331,0.02447 1.827958,0.354946 2.541919,0.924509 0.817818,0.632372 1.945248,0.710483 2.904014,0.387825 0.12607,-0.272618 0.239115,-0.552981 0.424573,-0.788493 0.728813,0.289332 0.554923,1.117792 0.36575,1.703809 0.05192,0.09641 0.153964,0.289521 0.204031,0.385988 0.639785,0.107549 1.305271,0.107587 1.891277,-0.209527 0.03727,-0.146511 0.10992,-0.439812 0.147038,-0.586314 0.515556,0.420958 0.849745,1.02224 1.402375,1.398704 0.155771,-0.261476 0.257938,-0.638938 0.602859,-0.714975 1.255469,-0.32645 2.584001,-0.200567 3.846897,0.02786 0.402422,0.05195 0.402547,0.519627 0.604688,0.784815 0.992144,0.509998 2.152178,0.307063 3.196252,0.499929 0.424675,0.665747 0.498257,1.500279 0.479706,2.271746 0.02032,0.463611 -0.371284,0.766815 -0.577121,1.137711 -0.343051,0.789999 0.35295,1.743182 -0.06437,2.48311 -0.817825,-0.06306 -1.589789,-0.43072 -2.422447,-0.360253 -0.14094,0.244799 -0.248263,0.518306 -0.444796,0.726004 -0.430248,0.05191 -0.863698,-0.0128 -1.29394,-0.02184 -0.09091,0.433946 -0.159385,0.87098 -0.216867,1.310482 1.422374,0.515543 2.948165,-0.03125 4.390936,0.327165 -0.140939,0.684302 -0.380695,1.341244 -0.562422,2.016264 -0.185435,0.780738 -0.966833,1.174255 -1.374815,1.817765 -0.08157,0.426527 0.532626,0.466807 0.782982,0.678212 0.623093,-0.23554 1.230732,-0.538157 1.724021,-0.992502 0.530375,-0.433957 0.957132,-1.036425 1.628454,-1.264533 0.719532,-0.05007 1.111009,0.92388 1.839818,0.786652 0.723257,-0.391318 1.048521,-1.407844 1.985022,-1.413404 -0.263319,1.175742 -1.413637,1.78872 -2.214768,2.575011 1.129383,0.369064 2.451068,0.862243 3.574877,0.215023 1.452039,-0.841925 2.695375,-2.215084 4.455263,-2.385695 1.316667,-0.09271 2.395023,0.922311 3.001424,1.996042 -0.382027,0.135367 -0.819334,0.297312 -0.865689,0.762767 -0.415396,1.69313 -2.040244,2.589395 -3.063911,3.865271 0.495152,-0.289333 0.987596,-0.588427 1.538383,-0.764605 -0.465481,1.13494 -1.390679,1.996322 -2.293802,2.791901 -3.506809,2.592531 -7.559965,4.506971 -11.860485,5.306246 -3.749736,0.754775 -7.656931,0.696593 -11.388128,-0.130512 -0.836369,-0.181746 -1.700713,-0.316211 -2.462893,-0.722323 -0.725074,-0.374596 -1.360352,-0.940821 -2.155927,-1.168918 -0.663898,-0.120536 -1.372877,0.07635 -2.001555,-0.235237 -1.568889,-0.721484 -3.043907,-1.638251 -4.468136,-2.611854 -1.707961,-1.016248 -3.139911,-2.420837 -4.514075,-3.843216 -1.275868,-1.444638 -2.574512,-2.880644 -3.663096,-4.475477 -0.179844,-0.242951 -0.238671,-0.541447 -0.270181,-0.834447 0.773314,0.420956 1.138995,1.259866 1.821442,1.784675 0.318972,-1.09971 -0.449154,-2.072474 -1.198363,-2.779025 -0.393155,-0.404391 -0.977441,-0.493691 -1.433641,-0.795961 -0.641652,-0.65462 -1.018485,-1.507207 -1.40421,-2.326877 -0.474746,-1.006983 -0.86289,-2.066978 -0.970452,-3.183378 1.018108,-0.34866 2.111857,-0.148732 3.142943,0.03312 1.240642,0.220707 2.463176,1.127869 2.637495,2.440836 0.124232,1.118255 -0.08441,2.336272 0.520154,3.348808 0.322656,0.61754 1.34773,0.393886 1.499793,1.157917 0.239217,0.87346 -0.145592,2.227666 0.928178,2.637509 0.179882,-0.665767 0.04022,-1.385604 0.275705,-2.032809 0.469181,-0.415402 1.171135,-0.310263 1.753434,-0.345534 1.146064,0.03351 2.525625,0.0207 3.324906,0.988831 -0.320803,0.292983 -0.65322,0.569107 -0.983325,0.850978 -0.0019,0.100169 -0.0061,0.298706 -0.0075,0.398845 0.471028,0.246643 1.012196,0.213365 1.485082,-0.0113 0.880875,-0.37646 1.902409,-0.822442 2.304829,-1.757104 -0.20215,-0.662042 -0.938183,-0.849913 -1.466706,-1.176302 -0.808546,-0.409835 -1.344629,-1.260807 -2.258876,-1.474064 -1.014399,-0.235541 -2.119432,-0.354006 -3.126409,-0.0256 -0.489578,0.09271 -0.640097,0.978345 -1.205712,0.711293 -0.08347,-0.111238 -0.251057,-0.335371 -0.334491,-0.446616 0.812264,-1.060763 2.185041,-1.424047 3.46092,-1.468557 0.795548,-0.01694 1.608752,-0.01468 2.376502,0.220556 0.441363,0.111238 0.700453,0.529457 1.093603,0.724172 0.365299,-0.01844 0.724566,-0.138079 1.091758,-0.113949 1.136792,0.292984 2.044388,1.236281 2.394881,2.345269 0.115003,0.443215 0.421392,0.780596 0.779305,1.047646 0.402423,-0.73808 0.06453,-1.557208 0.04408,-2.334236 0.326411,0.146511 0.647814,0.305446 0.966779,0.472359 -0.148317,-0.493289 -0.06407,-1.013154 0.317943,-1.378482 0.263358,-0.415406 0.820254,-0.754238 0.762764,-1.299455 -0.341244,-0.764049 -1.189832,-1.260476 -1.321505,-2.130214 -0.0705,-0.398714 0.322121,-0.68898 0.680053,-0.718651 0.606409,-0.06682 1.251881,-0.205461 1.847166,-0.03652 0.29114,0.356075 0.35122,0.87239 0.74806,1.152418 0.660191,0.534079 1.440907,0.94685 2.275421,1.121169 0.504412,0.135369 0.948628,-0.306837 1.128521,-0.733355 0.0797,-0.725097 -0.51942,-1.260728 -1.014569,-1.689103 -1.555894,-1.190574 -3.455212,-1.813731 -5.337498,-2.266224 -0.934664,-0.237384 -1.972318,-0.219014 -2.780849,-0.806876 0.44507,-0.484023 1.4285,-0.733849 1.383998,-1.505308 -0.736233,-0.634228 -1.930165,-0.523667 -2.518034,-1.36746 -0.328257,-0.391277 0.156223,-0.88039 0.571603,-0.88039 0.130023,-0.0094 0.260836,-0.01242 0.391514,-0.0094 z m -5.684876,3.947986 c 0.785606,0.0042 1.572849,0.07163 2.348935,0.17832 0.404283,0.04638 0.774367,0.231662 1.123004,0.431921 -0.224398,0.216981 -0.440016,0.479262 -0.770109,0.529337 -0.843782,0.179862 -1.597349,0.722793 -1.994208,1.496112 0.298593,0.09271 0.59472,0.192023 0.88959,0.299571 -0.495151,0.446923 -1.13486,0.06952 -1.663376,-0.102916 -1.210977,-0.509916 -2.500839,-1.000111 -3.402107,-1.997822 0.324495,-0.289295 0.679777,-0.578436 1.124854,-0.637775 0.7733,-0.141879 1.557822,-0.20083 2.343417,-0.19669 z m -10.390106,3.464586 c -0.200278,0.802983 0.153295,1.574341 0.48523,2.284618 0.65834,0.03727 1.116414,-0.575289 1.031107,-1.196533 0.09645,-0.836283 -0.950727,-0.891432 -1.516337,-1.088006 z m 8.065066,0.305105 c 0.790008,-0.0094 1.476333,0.46608 2.047505,0.966784 -0.96618,0.17433 -2.045049,0.243144 -2.94261,-0.227934 0.01841,-0.445078 0.501954,-0.696217 0.895105,-0.738868 z m 20.480608,2.894818 c -0.05572,0.0049 -0.11026,0.02032 -0.165446,0.04408 -0.237383,0.118655 -0.375349,0.365224 -0.327166,0.634108 0.04642,0.543359 0.999121,0.631646 1.08257,0.08451 0.16714,-0.399175 -0.20004,-0.797528 -0.589995,-0.762768 z m 9.702701,1.575146 c 0.144289,0.0028 0.290123,0.04694 0.424573,0.139735 -0.203994,0.361609 -0.445898,0.699435 -0.735198,0.999869 -0.170564,-0.207683 -0.542699,-0.346364 -0.487065,-0.669034 0.169587,-0.289446 0.480252,-0.477328 0.79769,-0.47052 z m -8.868259,1.769981 c -0.317114,0.280035 -0.829251,0.526769 -0.792164,1.02192 -0.0061,0.550764 0.465564,0.917658 0.816057,1.273716 0.133523,-0.294867 0.187317,-0.642936 0.409872,-0.889584 0.474749,-0.220707 1.024808,-0.178998 1.527368,-0.306949 -0.567473,-0.504424 -1.236039,-0.87843 -1.961133,-1.099114 z m -8.199225,0.619396 c -0.19289,0.712117 1.079317,0.679213 0.825252,1.393189 -0.16138,0.389432 0.0098,1.07698 0.556903,0.878561 0.120537,-0.610128 0.1336,-1.292819 -0.213215,-1.83247 -0.252178,-0.380148 -0.744281,-0.472664 -1.168955,-0.43928 z m -12.185807,0.0478 c -0.382026,0.318996 -0.778681,0.722948 -0.643302,1.271883 0.211394,1.197974 0.996271,2.311886 2.021783,2.964657 0.04262,-0.548918 0.02522,-1.105465 -0.145202,-1.632128 -0.274448,-0.921671 -0.511893,-1.914564 -1.233279,-2.604412 z m 27.764527,0.812387 c -0.100168,0.0019 -0.304203,0.0075 -0.406192,0.0094 -0.16138,0.33379 -0.74818,0.739503 -0.321631,1.082573 0.713958,0.181783 0.853938,-0.574359 0.727842,-1.091755 z m -23.241265,0.847308 c 0.376463,1.15904 0.984125,2.252097 1.720351,3.220134 0.574892,0.775167 1.644441,0.991259 2.534573,0.718649 0.433954,-0.140903 0.462534,-0.710823 0.121327,-0.970454 -0.595277,-0.489577 -1.420469,-0.522196 -2.07324,-0.911635 -0.949494,-0.469181 -1.442516,-1.472544 -2.302992,-2.056694 z m 24.404708,0.297728 c -0.157013,-0.01167 -0.318995,0.02974 -0.46685,0.139696 -0.289333,0.148319 -0.652259,0.615411 -0.262832,0.85834 0.509989,0.194733 1.065009,0.07943 1.591684,0.03162 0.04593,-0.49514 -0.39104,-0.995444 -0.862005,-1.029269 z m -31.212586,0.619408 c 0.05193,1.201686 0.250898,2.659089 1.387674,3.330418 1.609679,0.949483 3.549789,0.910405 5.337499,1.255334 -1.03851,-0.738001 -1.961882,-1.855625 -3.32307,-1.927955 -1.568881,-0.209527 -2.091004,-2.012367 -3.402103,-2.657715 z m 20.385042,0.674529 c -0.302282,0.035 -0.644775,0.0075 -0.891423,0.220557 -0.09826,0.307853 -0.03652,0.634951 -0.02936,0.952076 0.532224,-0.157617 0.920828,-0.605171 0.920828,-1.172641 z" />
  </g>
  <metadata
     id="metadata1584">
    <rdf:RDF>
      <cc:Work
         rdf:about="">
        <dc:title>Discovery Channel 2000 logo</dc:title>
        <dc:date>2-jun-2024</dc:date>
        <cc:license
           rdf:resource="http://scripts.sil.org/OFL" />
      </cc:Work>
      <cc:License
         rdf:about="http://scripts.sil.org/OFL">
        <cc:permits
           rdf:resource="http://scripts.sil.org/pub/OFL/Reproduction" />
        <cc:permits
           rdf:resource="http://scripts.sil.org/pub/OFL/Distribution" />
        <cc:permits
           rdf:resource="http://scripts.sil.org/pub/OFL/Embedding" />
        <cc:permits
           rdf:resource="http://scripts.sil.org/pub/OFL/DerivativeWorks" />
        <cc:requires
           rdf:resource="http://scripts.sil.org/pub/OFL/Notice" />
        <cc:requires
           rdf:resource="http://scripts.sil.org/pub/OFL/Attribution" />
        <cc:requires
           rdf:resource="http://scripts.sil.org/pub/OFL/ShareAlike" />
        <cc:requires
           rdf:resource="http://scripts.sil.org/pub/OFL/DerivativeRenaming" />
        <cc:requires
           rdf:resource="http://scripts.sil.org/pub/OFL/BundlingWhenSelling" />
      </cc:License>
    </rdf:RDF>
  </metadata>
</svg>
