<svg xmlns="http://www.w3.org/2000/svg" xmlns:xlink="http://www.w3.org/1999/xlink" width="512" zoomAndPan="magnify" viewBox="0 0 384 383.999986" height="512" preserveAspectRatio="xMidYMid meet" version="1.0"><defs><clipPath id="59fba2d620"><path d="M 11.550781 11.550781 L 372.449219 11.550781 L 372.449219 372.449219 L 11.550781 372.449219 Z M 11.550781 11.550781 " clip-rule="nonzero"/></clipPath><clipPath id="3bf6cbdae2"><path d="M 192 11.550781 C 92.339844 11.550781 11.550781 92.339844 11.550781 192 C 11.550781 291.660156 92.339844 372.449219 192 372.449219 C 291.660156 372.449219 372.449219 291.660156 372.449219 192 C 372.449219 92.339844 291.660156 11.550781 192 11.550781 Z M 192 11.550781 " clip-rule="nonzero"/></clipPath><clipPath id="a61f9f6ac6"><path d="M 0.550781 0.550781 L 361.449219 0.550781 L 361.449219 361.449219 L 0.550781 361.449219 Z M 0.550781 0.550781 " clip-rule="nonzero"/></clipPath><clipPath id="84cb660629"><path d="M 181 0.550781 C 81.339844 0.550781 0.550781 81.339844 0.550781 181 C 0.550781 280.660156 81.339844 361.449219 181 361.449219 C 280.660156 361.449219 361.449219 280.660156 361.449219 181 C 361.449219 81.339844 280.660156 0.550781 181 0.550781 Z M 181 0.550781 " clip-rule="nonzero"/></clipPath><clipPath id="322f84122c"><rect x="0" width="362" y="0" height="362"/></clipPath></defs><g clip-path="url(#59fba2d620)"><g clip-path="url(#3bf6cbdae2)"><g transform="matrix(1, 0, 0, 1, 11, 11)"><g clip-path="url(#322f84122c)"><g clip-path="url(#a61f9f6ac6)"><g clip-path="url(#84cb660629)"><path fill="#ffffff" d="M 0.550781 0.550781 L 361.449219 0.550781 L 361.449219 361.449219 L 0.550781 361.449219 Z M 0.550781 0.550781 " fill-opacity="1" fill-rule="nonzero"/></g></g></g></g></g></g><path fill="#000000" d="M 28.253906 131.25 L 28.253906 199.726562 L 48.183594 199.726562 C 60.324219 199.726562 65.558594 194.300781 65.558594 181.273438 L 65.558594 149.6875 C 65.558594 136.769531 60.324219 131.25 48.183594 131.25 Z M 106.105469 139.175781 C 94.75 139.175781 89.234375 144.273438 89.234375 154.601562 C 89.234375 163.621094 95.144531 167.03125 104.324219 174.351562 C 108.078125 177.265625 109.550781 179.074219 109.550781 184.1875 C 109.550781 184.652344 109.527344 185.066406 109.5 185.46875 C 107.320312 185.484375 105.152344 185.636719 102.992188 185.933594 C 102.953125 185.214844 102.945312 184.40625 102.945312 183.472656 L 102.945312 175.160156 L 89.03125 175.160156 L 89.03125 182.472656 C 89.03125 185.230469 89.242188 187.601562 89.671875 189.664062 C 87.824219 190.484375 86.035156 191.410156 84.296875 192.445312 C 84.367188 192.402344 84.433594 192.359375 84.503906 192.316406 L 84.503906 140.066406 L 70.589844 140.066406 L 70.589844 199.730469 L 74.570312 199.730469 C 75.054688 199.28125 75.554688 198.84375 76.058594 198.414062 C 71.53125 202.519531 67.875 207.292969 65.085938 212.734375 L 28.523438 212.734375 L 28.523438 245.402344 L 60.421875 245.402344 C 60.699219 246.820312 61.035156 248.222656 61.433594 249.609375 C 61.828125 250.996094 62.285156 252.363281 62.796875 253.710938 C 63.3125 255.058594 63.882812 256.382812 64.511719 257.683594 C 65.140625 258.980469 65.820312 260.25 66.558594 261.492188 C 67.296875 262.730469 68.085938 263.9375 68.925781 265.109375 C 69.765625 266.28125 70.65625 267.414062 71.59375 268.511719 C 72.53125 269.605469 73.515625 270.660156 74.546875 271.671875 C 75.574219 272.683594 76.644531 273.648438 77.757812 274.566406 C 78.867188 275.484375 80.019531 276.355469 81.203125 277.171875 C 82.390625 277.992188 83.609375 278.761719 84.863281 279.476562 C 86.117188 280.191406 87.398438 280.851562 88.707031 281.453125 C 90.015625 282.058594 91.347656 282.605469 92.703125 283.097656 C 94.0625 283.585938 95.4375 284.015625 96.828125 284.386719 C 98.222656 284.757812 99.628906 285.070312 101.050781 285.320312 C 102.46875 285.570312 103.898438 285.761719 105.335938 285.886719 C 106.769531 286.015625 108.210938 286.078125 109.652344 286.082031 C 111.097656 286.082031 112.539062 286.019531 113.976562 285.898438 C 115.414062 285.773438 116.847656 285.585938 118.269531 285.339844 C 119.691406 285.089844 121.101562 284.78125 122.5 284.414062 C 123.894531 284.042969 125.273438 283.613281 126.632812 283.125 C 127.992188 282.636719 129.328125 282.09375 130.640625 281.488281 C 131.953125 280.886719 133.238281 280.226562 134.492188 279.511719 C 135.75 278.796875 136.972656 278.03125 138.160156 277.210938 C 139.351562 276.390625 140.503906 275.523438 141.617188 274.601562 C 142.734375 273.683594 143.808594 272.71875 144.839844 271.707031 C 145.871094 270.695312 146.855469 269.640625 147.796875 268.542969 C 148.738281 267.449219 149.628906 266.3125 150.472656 265.140625 C 151.316406 263.964844 152.109375 262.757812 152.847656 261.515625 C 153.585938 260.273438 154.269531 259.003906 154.898438 257.703125 C 155.53125 256.402344 156.101562 255.074219 156.617188 253.726562 C 157.132812 252.375 157.589844 251.003906 157.988281 249.613281 C 158.382812 248.226562 158.722656 246.820312 158.996094 245.402344 L 356.890625 245.402344 L 356.890625 212.734375 L 154.238281 212.734375 C 154.257812 212.777344 154.277344 212.820312 154.292969 212.863281 C 151.964844 208.335938 149.015625 204.253906 145.449219 200.621094 C 145.566406 200.625 145.6875 200.632812 145.8125 200.632812 C 159.34375 200.632812 163.085938 194.515625 163.085938 181.480469 L 163.085938 175.550781 L 148.984375 175.550781 L 148.984375 183.476562 C 148.984375 187.585938 148.871094 189.699219 145.816406 189.699219 C 142.757812 189.699219 142.664062 187.691406 142.664062 183.476562 L 142.664062 156.304688 C 142.664062 152.207031 142.757812 150.101562 145.816406 150.101562 C 148.871094 150.101562 148.984375 152.09375 148.984375 156.304688 L 148.984375 164.226562 L 163.085938 164.226562 L 163.085938 158.320312 C 163.085938 145.277344 159.34375 139.179688 145.816406 139.179688 L 145.816406 139.175781 C 132.296875 139.175781 128.558594 145.375 128.558594 158.316406 L 128.558594 181.480469 C 128.558594 184.546875 128.777344 187.21875 129.269531 189.53125 C 127.425781 188.722656 125.539062 188.03125 123.609375 187.453125 C 123.773438 186.1875 123.863281 184.839844 123.863281 183.378906 C 123.863281 175.054688 120.8125 169.648438 113.605469 164.222656 C 107.972656 159.914062 103.046875 157.714844 103.046875 153.804688 C 103.046875 151.292969 103.824219 150.101562 106.105469 150.101562 C 108.078125 150.101562 109.253906 151.390625 109.253906 153.300781 L 109.253906 158.800781 L 123.179688 158.800781 L 123.179688 154.898438 C 123.179688 143.777344 117.945312 139.175781 106.105469 139.175781 Z M 184.664062 139.175781 C 171.15625 139.175781 167.398438 145.378906 167.398438 158.320312 L 167.398438 181.480469 C 167.398438 194.511719 171.15625 200.628906 184.664062 200.628906 C 198.191406 200.628906 201.945312 194.511719 201.945312 181.480469 L 201.945312 158.320312 C 201.945312 145.273438 198.191406 139.175781 184.664062 139.175781 Z M 262.242188 139.175781 C 248.714844 139.175781 244.964844 145.378906 244.964844 158.320312 L 244.964844 181.480469 C 244.964844 194.511719 248.714844 200.628906 262.242188 200.628906 C 275.761719 200.628906 279.515625 194.511719 279.515625 181.480469 L 279.515625 175.550781 L 265.597656 175.550781 L 265.597656 183.472656 C 265.597656 187.5 265.5 189.699219 262.242188 189.699219 C 258.984375 189.699219 258.878906 187.6875 258.878906 183.472656 L 258.878906 172.148438 L 279.515625 172.148438 L 279.515625 158.320312 C 279.515625 145.273438 275.761719 139.175781 262.242188 139.175781 Z M 306.269531 139.367188 C 302.121094 139.367188 299.253906 140.964844 297.28125 143.257812 L 297.28125 140.070312 L 284.160156 140.070312 L 284.160156 199.730469 L 298.078125 199.730469 L 298.078125 156.296875 C 298.078125 152.207031 298.164062 150.097656 301.230469 150.097656 C 304.296875 150.097656 304.390625 152.089844 304.390625 156.296875 L 304.390625 168.546875 L 318.304688 168.546875 L 318.304688 157.503906 C 318.304688 145.675781 316.035156 139.367188 306.269531 139.367188 Z M 206.863281 140.066406 L 206.863281 164.21875 C 206.863281 179.671875 210.21875 191.707031 216.144531 199.730469 L 231.738281 199.730469 C 237.660156 191.707031 241.003906 179.671875 241.003906 164.21875 L 241.003906 140.066406 L 227.089844 140.066406 L 227.089844 162.234375 C 227.089844 173.160156 226.011719 181.871094 223.9375 188.285156 C 221.953125 181.871094 220.777344 173.160156 220.777344 162.234375 L 220.777344 140.066406 Z M 323.019531 140.070312 L 323.019531 161.515625 C 323.019531 175.160156 325.78125 186.683594 332.285156 198.308594 L 323.019531 198.308594 L 323.019531 206.621094 L 344.832031 206.621094 C 355.101562 190.503906 357.164062 177.054688 357.164062 161.515625 L 357.164062 140.070312 L 343.25 140.070312 L 343.25 162.117188 C 343.25 173.5625 342.070312 183.382812 340.097656 190.898438 C 338.113281 183.082031 336.933594 173.34375 336.933594 162.117188 L 336.933594 140.070312 Z M 43.152344 144.273438 L 45.613281 144.273438 C 50.75 144.273438 50.453125 146.679688 50.453125 152.40625 L 50.453125 178.566406 C 50.453125 184.367188 50.75 186.683594 45.613281 186.683594 L 43.152344 186.683594 Z M 184.664062 150.101562 C 187.730469 150.101562 187.824219 152.09375 187.824219 156.300781 L 187.824219 183.472656 C 187.824219 187.582031 187.730469 189.699219 184.664062 189.699219 C 181.617188 189.699219 181.511719 187.6875 181.511719 183.472656 L 181.511719 156.300781 C 181.511719 152.203125 181.617188 150.101562 184.664062 150.101562 Z M 262.242188 150.101562 C 265.5 150.101562 265.597656 152.09375 265.597656 156.703125 L 265.597656 161.21875 L 258.878906 161.21875 L 258.878906 156.703125 C 258.878906 152.09375 258.984375 150.101562 262.242188 150.101562 Z M 113.097656 188.972656 C 117.359375 189.035156 121.5625 190.035156 125.605469 191.332031 C 125.648438 192.25 125.785156 193.164062 125.667969 194.082031 C 125.203125 194.476562 124.546875 194.410156 123.980469 194.417969 C 123.035156 194.402344 121.949219 194.203125 121.480469 193.273438 C 119.800781 192.851562 117.804688 192.457031 116.214844 193.308594 C 116.515625 193.683594 116.910156 194 117.105469 194.453125 C 116.6875 195.4375 115.886719 196.191406 115.378906 197.125 C 116.976562 196.136719 118.628906 194.917969 120.617188 195.039062 C 120.773438 195.472656 120.679688 195.832031 120.335938 196.117188 C 119.351562 197.035156 118.046875 197.507812 116.8125 197.984375 C 115.59375 198.472656 114.28125 198.152344 113.019531 198.21875 C 112.566406 198.679688 112.3125 199.285156 111.964844 199.824219 C 109.320312 198.742188 107.320312 196.5625 104.71875 195.398438 C 104.324219 195.246094 103.890625 195.273438 103.476562 195.21875 C 102.804688 194.496094 102.195312 193.710938 101.496094 193.011719 C 100.484375 194.5625 100.140625 196.550781 100.957031 198.265625 C 101.46875 199.199219 100.546875 199.988281 99.890625 200.523438 C 98.199219 201.804688 96.355469 202.910156 94.386719 203.703125 C 92.851562 204.359375 91.105469 204.28125 89.613281 205.074219 C 87.484375 206.175781 85.507812 207.558594 83.355469 208.621094 C 80.914062 209.972656 78.273438 210.929688 75.878906 212.371094 C 75.164062 212.742188 74.726562 213.425781 74.253906 214.042969 C 73.421875 214.398438 72.433594 214.375 71.703125 214.976562 C 69.347656 216.808594 67.464844 219.230469 66.148438 221.902344 C 65.480469 223.226562 65.03125 224.648438 64.390625 225.984375 C 64.765625 224.144531 65.046875 222.269531 65.644531 220.480469 C 67.136719 216.351562 69.300781 212.492188 71.765625 208.871094 C 73.769531 205.988281 75.980469 203.207031 78.699219 200.96875 C 81.078125 198.976562 83.410156 196.851562 86.21875 195.464844 C 92.136719 191.992188 98.800781 189.804688 105.625 189.085938 C 107.5 188.839844 109.390625 189.089844 111.269531 189.007812 C 111.882812 188.976562 112.492188 188.960938 113.097656 188.972656 Z M 99.726562 192.914062 C 98.136719 193.234375 96.503906 193.507812 95.035156 194.226562 C 94.484375 194.46875 94.132812 194.960938 93.863281 195.476562 C 96.003906 195.140625 97.886719 193.992188 99.726562 192.914062 Z M 81.292969 194.324219 C 79.921875 195.25 78.597656 196.246094 77.320312 197.300781 C 78.597656 196.246094 79.921875 195.25 81.292969 194.324219 Z M 134.992188 199.027344 C 135.300781 199.039062 135.6875 199.363281 135.953125 199.453125 C 137.261719 200.371094 138.515625 201.554688 139.089844 203.082031 C 139.371094 203.769531 139 205.058594 138.09375 204.914062 C 136.566406 204.242188 135.667969 202.691406 134.945312 201.265625 C 134.738281 200.648438 134.273438 199.875 134.632812 199.257812 C 134.722656 199.082031 134.851562 199.023438 134.992188 199.027344 Z M 105.527344 200.089844 C 106.921875 200.582031 108.316406 201.101562 109.625 201.792969 C 109.902344 201.914062 110.054688 202.132812 110.082031 202.441406 C 109.726562 202.945312 108.992188 203.28125 109.03125 203.980469 C 109.335938 204.609375 110.007812 204.929688 110.65625 205.074219 C 112.050781 205.472656 113.476562 205.003906 114.886719 204.945312 C 114.46875 205.613281 114.035156 206.332031 113.300781 206.691406 C 112.65625 207.023438 111.761719 206.558594 111.253906 207.183594 C 109.839844 208.632812 109.507812 210.710938 109.082031 212.609375 C 108.882812 213.613281 108.242188 214.5 108.136719 215.515625 C 108.617188 217.125 109.957031 218.40625 111.378906 219.234375 C 112.84375 219.710938 114.449219 219.59375 115.929688 220.066406 C 115.929688 220.25 115.929688 220.621094 115.933594 220.808594 C 114.535156 221.738281 112.835938 221.496094 111.269531 221.769531 C 110.046875 221.945312 109.515625 223.148438 108.894531 224.054688 C 107.910156 222.976562 106.5 222.4375 105.046875 222.699219 C 105.210938 223.691406 105.855469 224.683594 105.496094 225.699219 C 105.054688 226.851562 104.230469 227.796875 103.425781 228.710938 C 102.246094 229.964844 100.996094 231.40625 99.160156 231.539062 C 98.785156 232.503906 99.015625 233.929688 97.832031 234.355469 C 96.679688 235.003906 95.992188 233.628906 95.214844 233.050781 C 94.296875 232.625 93.265625 233.023438 92.300781 232.886719 C 91.359375 232.296875 92.011719 230.636719 92.949219 230.382812 C 94.027344 230.140625 94.28125 231.660156 95.257812 231.777344 C 95.667969 231.742188 96.074219 231.652344 96.480469 231.574219 C 96.894531 230.726562 97.191406 229.726562 96.808594 228.8125 C 96.4375 228.003906 95.523438 227.640625 94.683594 227.613281 C 93.679688 227.730469 92.898438 228.414062 92.058594 228.902344 C 92.023438 227.265625 92.851562 225.710938 92.644531 224.078125 C 92.671875 223.515625 91.804688 223.546875 91.582031 223.925781 C 90.539062 225.238281 91.144531 227.03125 90.898438 228.5625 C 90.40625 228.601562 89.871094 228.304688 89.410156 228.539062 C 89.203125 229.257812 89.097656 230.03125 88.554688 230.59375 C 87.609375 230.511719 86.296875 230.035156 86.425781 228.863281 C 86.53125 227.160156 86.253906 225.261719 84.925781 224.058594 C 84.222656 223.355469 83.152344 223.808594 82.28125 223.714844 C 81.605469 223.085938 80.757812 222.707031 79.835938 222.652344 C 79.136719 221.703125 79.207031 220.429688 79.765625 219.429688 C 80.152344 219.4375 80.539062 219.445312 80.925781 219.453125 C 81.105469 218.476562 80.949219 217.488281 80.511719 216.601562 C 78.726562 216.46875 77.191406 217.664062 75.40625 217.582031 C 76.667969 216.117188 78.40625 214.574219 80.480469 214.851562 C 82.738281 215.121094 84.054688 212.914062 85.886719 212.046875 C 86.328125 211.6875 86.820312 212 87.277344 212.140625 C 86.972656 214.328125 85.113281 215.714844 83.566406 217.066406 C 83.125 217.398438 82.820312 217.863281 82.652344 218.382812 C 83.332031 218.660156 84.109375 218.789062 84.671875 219.300781 C 85.027344 219.726562 85.21875 220.253906 85.476562 220.738281 C 86.816406 220.679688 87.214844 219.234375 87.335938 218.140625 C 87.503906 217.167969 87.28125 215.898438 88.179688 215.234375 C 89.210938 214.707031 90.519531 214.613281 91.589844 215.082031 C 92.886719 215.804688 93.222656 217.375 94.136719 218.4375 C 94.679688 218.917969 95.378906 218.496094 95.800781 218.074219 C 97.394531 216.609375 97.082031 213.667969 95.289062 212.507812 C 94.5 211.96875 93.621094 212.472656 92.816406 212.667969 C 92 212.152344 92.84375 210.996094 93.535156 210.78125 C 94.4375 210.339844 95.25 211.082031 95.996094 211.496094 C 96.835938 212.074219 97.992188 211.886719 98.78125 211.3125 C 100.195312 210.300781 100.953125 208.671875 102.15625 207.449219 C 102.726562 208.980469 104.527344 209.015625 105.882812 208.777344 C 105.484375 208.289062 104.863281 207.902344 104.757812 207.230469 C 105.792969 206.53125 107.054688 206.324219 108.257812 206.09375 C 107.644531 203.960938 106.273438 202.164062 105.53125 200.089844 Z M 98.339844 205.457031 C 98.996094 205.464844 99.355469 206.191406 99.5625 206.738281 C 98.925781 207.828125 97.492188 206.304688 98.277344 205.457031 C 98.296875 205.457031 98.320312 205.457031 98.339844 205.457031 Z M 132.179688 207.550781 C 133.445312 207.574219 134.640625 208.421875 135.289062 209.492188 C 135.894531 210.507812 136.742188 211.597656 136.539062 212.847656 C 136.289062 213.636719 135.285156 213.546875 134.640625 213.429688 C 132.578125 213.117188 131.152344 211.246094 129.050781 211.066406 C 126.738281 210.871094 124.523438 211.917969 122.210938 211.808594 C 122.285156 210.851562 123.1875 210.363281 124 210.105469 C 125.9375 209.496094 128.03125 209.226562 130.027344 209.699219 C 130.46875 209.695312 131.113281 210 131.433594 209.609375 C 131.460938 208.949219 131.070312 208.226562 131.472656 207.628906 C 131.710938 207.574219 131.945312 207.546875 132.179688 207.550781 Z M 105.316406 210.066406 C 104.390625 210.121094 103.542969 210.679688 102.6875 211.011719 C 101.457031 211.507812 100.285156 212.597656 100.429688 214.042969 C 100.929688 214.226562 101.433594 214.390625 101.917969 214.617188 C 101.925781 215.292969 101.8125 215.960938 101.765625 216.632812 C 103.34375 215.421875 104.507812 213.425781 106.65625 213.183594 C 106.804688 212.085938 106.808594 210.71875 105.71875 210.078125 C 105.585938 210.0625 105.449219 210.058594 105.316406 210.066406 Z M 139.878906 210.269531 C 140.003906 210.269531 140.128906 210.289062 140.257812 210.324219 C 140.75 210.949219 140.753906 211.824219 141.191406 212.492188 C 141.964844 213.6875 143.101562 214.613281 144.328125 215.316406 C 145.324219 215.917969 146.613281 215.800781 147.519531 216.574219 C 148.941406 217.742188 150.066406 219.332031 150.566406 221.109375 C 150.886719 222.007812 150.082031 222.878906 149.191406 222.863281 C 147.964844 223.09375 146.976562 221.925781 146.757812 220.828125 C 146.609375 219.832031 146.667969 218.796875 146.28125 217.847656 C 144.90625 217.539062 143.683594 216.828125 142.65625 215.878906 C 141.089844 214.460938 139.359375 213.011719 138.523438 211.023438 C 138.835938 210.5625 139.335938 210.261719 139.878906 210.269531 Z M 117.601562 211.121094 C 117.996094 211.109375 118.394531 211.265625 118.679688 211.613281 C 119.457031 212.3125 118.058594 212.929688 117.460938 212.964844 C 116.804688 213.136719 116.671875 212.304688 116.355469 211.9375 C 116.601562 211.425781 117.097656 211.136719 117.601562 211.121094 Z M 124.28125 213.25 C 123.640625 215.113281 121.523438 216.816406 119.488281 216.136719 C 119.1875 215.5 119.613281 214.851562 120.128906 214.492188 C 120.648438 214.519531 121.160156 214.613281 121.679688 214.65625 C 122.496094 214.082031 123.1875 213.238281 124.28125 213.25 Z M 114.113281 213.652344 C 114.140625 213.648438 114.164062 213.648438 114.195312 213.652344 C 115.808594 214.089844 117.082031 215.292969 118.167969 216.511719 C 116.554688 216.695312 114.746094 216.464844 113.460938 215.390625 C 112.6875 214.839844 113.253906 213.667969 114.113281 213.652344 Z M 102.351562 217.636719 C 101.382812 218.65625 100.917969 220.035156 100.664062 221.390625 C 100.402344 222.460938 100.890625 223.644531 101.828125 224.226562 C 102.65625 222.144531 102.535156 219.824219 102.351562 217.636719 Z M 98.21875 218.046875 C 98.175781 218.050781 98.132812 218.0625 98.089844 218.089844 C 97.183594 218.488281 96.171875 219.242188 96.070312 220.300781 C 97.132812 220.574219 98.167969 219.71875 98.539062 218.773438 C 98.820312 218.539062 98.523438 218.027344 98.21875 218.046875 Z M 89.898438 218.277344 C 89.621094 218.285156 89.359375 218.347656 89.152344 218.476562 C 88.765625 218.664062 88.609375 218.976562 88.675781 219.410156 C 89.214844 220.238281 90.53125 220.296875 91.238281 219.660156 C 91.644531 218.773438 90.726562 218.261719 89.898438 218.277344 Z M 182.90625 220.511719 C 186.824219 220.511719 191.082031 222 191.257812 226.175781 L 191.292969 226.730469 L 186.558594 226.730469 L 186.539062 226.21875 C 186.457031 224.707031 184.621094 224.023438 182.953125 224.023438 C 182.179688 224.023438 178.328125 224.257812 178.328125 228.945312 C 178.328125 233.636719 182.179688 233.882812 182.953125 233.882812 C 185.488281 233.882812 186.570312 232.636719 186.734375 231.574219 L 186.800781 231.128906 L 191.492188 231.128906 L 191.457031 231.695312 C 191.191406 235.363281 188.085938 237.382812 182.683594 237.382812 C 176.914062 237.382812 173.605469 234.308594 173.605469 228.945312 C 173.605469 223.664062 177.078125 220.511719 182.90625 220.511719 Z M 94.394531 220.875 C 93.984375 221.332031 93.632812 221.839844 93.339844 222.378906 C 93.925781 222.53125 94.527344 222.65625 95.125 222.769531 C 95.410156 221.996094 94.929688 221.378906 94.394531 220.875 Z M 199.433594 220.910156 L 204.03125 220.910156 L 204.03125 227.019531 L 211.441406 227.019531 L 211.441406 220.910156 L 216.035156 220.910156 L 216.035156 236.980469 L 211.441406 236.980469 L 211.441406 230.527344 L 204.03125 230.527344 L 204.03125 236.980469 L 199.433594 236.980469 Z M 231.289062 220.910156 L 236.363281 220.910156 L 244.902344 236.980469 L 239.527344 236.980469 L 237.722656 233.621094 L 229.414062 233.621094 L 227.769531 236.980469 L 222.769531 236.980469 Z M 251.695312 220.910156 L 257.457031 220.910156 L 265.507812 231.421875 L 265.507812 220.910156 L 269.765625 220.910156 L 269.765625 236.980469 L 264.234375 236.980469 L 255.945312 226.25 L 255.945312 236.980469 L 251.695312 236.980469 Z M 278.59375 220.910156 L 284.339844 220.910156 L 292.402344 231.421875 L 292.402344 220.910156 L 296.660156 220.910156 L 296.660156 236.980469 L 291.117188 236.980469 L 282.84375 226.25 L 282.84375 236.980469 L 278.59375 236.980469 Z M 305.429688 220.910156 L 318.878906 220.910156 L 318.878906 224.410156 L 310.011719 224.410156 L 310.011719 226.898438 L 318.5625 226.898438 L 318.5625 230.410156 L 310.011719 230.410156 L 310.011719 233.464844 L 319.28125 233.464844 L 319.28125 236.984375 L 305.429688 236.984375 Z M 327.519531 220.910156 L 332.109375 220.910156 L 332.109375 233.464844 L 340.695312 233.464844 L 340.695312 236.984375 L 327.519531 236.984375 Z M 118.855469 221.171875 C 118.972656 221.171875 119.101562 221.199219 119.238281 221.253906 C 120.023438 222.546875 120.527344 224.132812 120.167969 225.644531 C 118.425781 225.464844 116.867188 223.011719 118.210938 221.570312 C 118.382812 221.308594 118.597656 221.175781 118.855469 221.171875 Z M 89.5625 221.824219 C 89.074219 221.816406 88.585938 221.863281 88.105469 221.960938 C 87.359375 223.621094 87.867188 226.28125 90.019531 226.433594 C 90.320312 224.941406 90.929688 223.515625 91.011719 221.984375 C 90.53125 221.886719 90.046875 221.832031 89.5625 221.824219 Z M 69.855469 222.199219 C 69.589844 223.328125 68.882812 224.257812 68.238281 225.1875 C 66.960938 226.992188 65.757812 228.859375 64.726562 230.820312 C 64.457031 231.304688 64.1875 231.824219 63.699219 232.117188 C 63.429688 231.210938 63.394531 230.242188 63.582031 229.316406 C 63.863281 227.871094 65.15625 226.992188 66.007812 225.890625 C 67.257812 224.628906 68.28125 223.082031 69.855469 222.199219 Z M 124.070312 223.894531 C 124.925781 223.886719 125.449219 224.65625 125.789062 225.351562 C 124.832031 225.921875 123.695312 225.636719 123.101562 224.703125 C 123.375 224.410156 123.667969 224.136719 123.984375 223.898438 C 124.011719 223.894531 124.042969 223.894531 124.070312 223.894531 Z M 233.566406 225.3125 L 231.1875 230.105469 L 235.941406 230.105469 Z M 79.3125 227.632812 C 79.078125 228.460938 78.789062 229.332031 78.121094 229.917969 C 77.445312 230.054688 77.734375 229.316406 77.917969 228.984375 C 78.269531 228.429688 78.820312 228.046875 79.3125 227.632812 Z M 81.082031 229.3125 C 82.152344 230.191406 81.1875 231.511719 80.480469 232.265625 C 80.078125 231.21875 80.222656 230.074219 81.082031 229.3125 Z M 72.050781 230.296875 C 70.523438 231.140625 69.070312 232.117188 67.875 233.398438 C 67.808594 232.621094 67.652344 231.746094 68.15625 231.074219 C 69.40625 230.636719 70.761719 230.574219 72.050781 230.296875 Z M 134.578125 233.296875 C 136.570312 234.121094 138.222656 235.566406 139.835938 236.964844 C 142.148438 239.132812 144.34375 241.484375 145.945312 244.238281 C 147.09375 246.257812 148.410156 248.1875 150 249.886719 C 150.722656 250.6875 151.539062 251.773438 151.054688 252.910156 C 150.382812 253.359375 149.5 253.210938 148.816406 253.625 C 147.472656 254.484375 147.339844 256.449219 145.898438 257.167969 C 144.535156 257.105469 143.25 256.441406 142.101562 255.742188 C 141.222656 255.226562 140.863281 254.25 140.488281 253.363281 C 138.8125 254.207031 137.523438 255.800781 135.582031 256.082031 C 134.695312 256.367188 133.484375 256.171875 133.179688 255.15625 C 132.6875 253.589844 132.328125 251.5625 133.539062 250.230469 C 133.945312 249.796875 133.964844 249.183594 134.046875 248.628906 C 132.132812 249.355469 131.050781 251.214844 129.628906 252.574219 C 128.902344 251.078125 127.527344 249.796875 127.5625 248.03125 C 128.941406 248.472656 129.460938 249.910156 130.289062 250.949219 C 130.875 249.566406 130.496094 248.054688 130.652344 246.613281 C 130.605469 246.121094 130.96875 245.789062 131.371094 245.585938 C 132.269531 245.597656 132.695312 246.511719 133.261719 247.0625 C 134.363281 246.523438 135.03125 245.398438 136.175781 244.917969 C 137.660156 245.804688 137.96875 247.703125 137.875 249.292969 C 137.894531 250.320312 137.167969 251.109375 136.679688 251.945312 C 138.992188 251.964844 141.214844 250.011719 141.5 247.710938 C 143.160156 247.984375 143.316406 249.882812 143.949219 251.121094 C 144.851562 248.648438 144.90625 245.800781 143.832031 243.375 C 142.929688 241.03125 141.289062 239.042969 139.335938 237.492188 C 137.878906 236.371094 136.121094 235.640625 134.839844 234.296875 C 134.773438 234.046875 134.640625 233.546875 134.578125 233.296875 Z M 71.867188 233.691406 C 73.171875 233.667969 74.457031 234.273438 75.394531 235.171875 C 74.558594 235.710938 73.449219 236.109375 73.152344 237.164062 C 72.824219 238.261719 72.84375 239.4375 72.449219 240.523438 C 71.011719 239.789062 70.816406 238 70.585938 236.570312 C 70.566406 235.648438 70.253906 234.382812 71.140625 233.765625 C 71.382812 233.71875 71.625 233.695312 71.867188 233.691406 Z M 87.429688 236 C 88.738281 236.003906 90.039062 236.242188 91.222656 236.816406 C 90.847656 237.914062 89.738281 238.394531 88.742188 238.773438 C 87.542969 239.199219 86.269531 239.613281 84.980469 239.4375 C 84.15625 239.296875 83.292969 238.847656 82.957031 238.035156 C 82.769531 236.976562 83.933594 236.476562 84.769531 236.285156 C 85.636719 236.105469 86.535156 236 87.429688 236 Z M 100.328125 236.882812 C 101.019531 236.882812 102.015625 236.871094 102.21875 237.710938 C 102.230469 239.046875 101.34375 240.226562 100.308594 240.996094 C 99.742188 239.898438 99.113281 238.722656 99.179688 237.453125 C 99.171875 236.824219 99.910156 236.914062 100.328125 236.882812 Z M 96.113281 237.207031 C 96.828125 237.199219 97.519531 237.382812 98.007812 237.980469 C 97.726562 238.300781 97.601562 238.921875 97.0625 238.882812 C 96.148438 238.964844 95.492188 238.101562 95.613281 237.238281 C 95.78125 237.222656 95.949219 237.210938 96.113281 237.207031 Z M 78.800781 237.664062 C 79.453125 237.652344 80.082031 237.917969 80.535156 238.585938 C 79.375 239.832031 77.734375 240.65625 76.03125 240.753906 C 75.289062 240.839844 75.6875 239.957031 75.875 239.636719 C 76.378906 238.578125 77.632812 237.679688 78.800781 237.664062 Z M 93.25 239.570312 C 94.710938 239.609375 96.167969 240.136719 97.308594 241.046875 C 98.613281 242.058594 100.414062 242.183594 101.945312 241.667969 C 102.144531 241.230469 102.324219 240.785156 102.621094 240.40625 C 103.785156 240.871094 103.507812 242.195312 103.207031 243.128906 C 103.289062 243.285156 103.453125 243.59375 103.53125 243.746094 C 104.550781 243.917969 105.613281 243.917969 106.550781 243.410156 C 106.609375 243.175781 106.726562 242.710938 106.785156 242.476562 C 107.609375 243.148438 108.140625 244.109375 109.023438 244.710938 C 109.273438 244.292969 109.4375 243.6875 109.984375 243.566406 C 111.992188 243.046875 114.109375 243.246094 116.128906 243.613281 C 116.769531 243.695312 116.769531 244.441406 117.09375 244.867188 C 118.675781 245.679688 120.527344 245.355469 122.195312 245.664062 C 122.875 246.726562 122.992188 248.0625 122.960938 249.292969 C 122.992188 250.035156 122.367188 250.519531 122.039062 251.109375 C 121.492188 252.371094 122.601562 253.894531 121.9375 255.078125 C 120.632812 254.976562 119.398438 254.390625 118.070312 254.503906 C 117.84375 254.894531 117.671875 255.328125 117.359375 255.660156 C 116.671875 255.746094 115.980469 255.640625 115.292969 255.625 C 115.148438 256.320312 115.039062 257.019531 114.949219 257.71875 C 117.21875 258.542969 119.652344 257.671875 121.957031 258.242188 C 121.730469 259.335938 121.351562 260.386719 121.058594 261.464844 C 120.761719 262.710938 119.515625 263.339844 118.863281 264.367188 C 118.734375 265.050781 119.714844 265.113281 120.113281 265.453125 C 121.109375 265.074219 122.078125 264.589844 122.867188 263.867188 C 123.714844 263.171875 124.394531 262.210938 125.464844 261.847656 C 126.617188 261.765625 127.238281 263.320312 128.402344 263.101562 C 129.558594 262.476562 130.078125 260.851562 131.574219 260.84375 C 131.152344 262.722656 129.316406 263.703125 128.035156 264.957031 C 129.839844 265.546875 131.949219 266.335938 133.742188 265.300781 C 136.0625 263.957031 138.046875 261.761719 140.855469 261.492188 C 142.957031 261.34375 144.679688 262.964844 145.648438 264.679688 C 145.039062 264.894531 144.339844 265.152344 144.265625 265.898438 C 143.601562 268.601562 141.007812 270.035156 139.375 272.074219 C 140.164062 271.609375 140.949219 271.132812 141.832031 270.851562 C 141.085938 272.664062 139.609375 274.039062 138.167969 275.3125 C 132.570312 279.453125 126.101562 282.511719 119.234375 283.789062 C 113.25 284.992188 107.011719 284.902344 101.054688 283.578125 C 99.71875 283.289062 98.339844 283.074219 97.121094 282.425781 C 95.964844 281.828125 94.953125 280.921875 93.679688 280.558594 C 92.621094 280.367188 91.488281 280.679688 90.484375 280.183594 C 87.980469 279.03125 85.625 277.566406 83.351562 276.007812 C 80.625 274.386719 78.339844 272.140625 76.148438 269.871094 C 74.109375 267.5625 72.035156 265.269531 70.300781 262.71875 C 70.011719 262.332031 69.917969 261.855469 69.867188 261.386719 C 71.101562 262.058594 71.6875 263.398438 72.777344 264.238281 C 73.285156 262.480469 72.058594 260.929688 70.863281 259.800781 C 70.234375 259.152344 69.300781 259.011719 68.574219 258.527344 C 67.550781 257.480469 66.949219 256.121094 66.332031 254.808594 C 65.574219 253.203125 64.953125 251.507812 64.78125 249.726562 C 66.410156 249.167969 68.15625 249.488281 69.800781 249.777344 C 71.78125 250.128906 73.734375 251.578125 74.011719 253.675781 C 74.210938 255.464844 73.875 257.410156 74.839844 259.027344 C 75.355469 260.011719 76.992188 259.65625 77.234375 260.875 C 77.617188 262.273438 77.003906 264.433594 78.71875 265.089844 C 79.003906 264.027344 78.78125 262.875 79.15625 261.84375 C 79.90625 261.179688 81.027344 261.347656 81.957031 261.289062 C 83.785156 261.34375 85.988281 261.324219 87.265625 262.871094 C 86.753906 263.339844 86.222656 263.78125 85.695312 264.230469 C 85.691406 264.390625 85.683594 264.707031 85.683594 264.867188 C 86.433594 265.261719 87.296875 265.207031 88.054688 264.847656 C 89.460938 264.246094 91.089844 263.535156 91.734375 262.042969 C 91.410156 260.984375 90.234375 260.683594 89.390625 260.164062 C 88.101562 259.507812 87.246094 258.148438 85.785156 257.808594 C 84.164062 257.429688 82.402344 257.242188 80.792969 257.765625 C 80.011719 257.914062 79.773438 259.328125 78.871094 258.902344 C 78.738281 258.726562 78.46875 258.367188 78.335938 258.191406 C 79.632812 256.496094 81.824219 255.914062 83.859375 255.84375 C 85.128906 255.816406 86.429688 255.820312 87.65625 256.195312 C 88.359375 256.375 88.773438 257.042969 89.398438 257.351562 C 89.984375 257.324219 90.558594 257.132812 91.144531 257.171875 C 92.957031 257.640625 94.40625 259.144531 94.964844 260.917969 C 95.148438 261.625 95.640625 262.164062 96.210938 262.589844 C 96.851562 261.410156 96.3125 260.101562 96.28125 258.863281 C 96.800781 259.097656 97.316406 259.351562 97.824219 259.617188 C 97.585938 258.828125 97.722656 258 98.332031 257.414062 C 98.753906 256.75 99.640625 256.210938 99.550781 255.339844 C 99.003906 254.117188 97.648438 253.324219 97.441406 251.9375 C 97.328125 251.296875 97.953125 250.835938 98.523438 250.789062 C 99.492188 250.679688 100.523438 250.460938 101.472656 250.730469 C 101.9375 251.296875 102.035156 252.121094 102.667969 252.570312 C 103.722656 253.421875 104.96875 254.082031 106.300781 254.363281 C 107.105469 254.578125 107.816406 253.871094 108.101562 253.191406 C 108.230469 252.03125 107.273438 251.175781 106.484375 250.492188 C 104 248.589844 100.964844 247.59375 97.960938 246.871094 C 96.46875 246.492188 94.8125 246.519531 93.523438 245.582031 C 94.234375 244.808594 95.804688 244.410156 95.730469 243.175781 C 94.554688 242.164062 92.652344 242.339844 91.710938 240.992188 C 91.1875 240.367188 91.960938 239.585938 92.625 239.585938 C 92.832031 239.570312 93.042969 239.566406 93.25 239.570312 Z M 84.175781 245.878906 C 85.429688 245.882812 86.6875 245.992188 87.925781 246.164062 C 88.570312 246.238281 89.160156 246.53125 89.71875 246.851562 C 89.359375 247.199219 89.015625 247.617188 88.488281 247.699219 C 87.140625 247.984375 85.9375 248.851562 85.304688 250.089844 C 85.78125 250.238281 86.253906 250.394531 86.722656 250.566406 C 85.933594 251.28125 84.914062 250.679688 84.070312 250.402344 C 82.136719 249.589844 80.078125 248.804688 78.636719 247.210938 C 79.15625 246.75 79.722656 246.285156 80.433594 246.191406 C 81.667969 245.964844 82.921875 245.871094 84.175781 245.878906 Z M 67.589844 251.414062 C 67.269531 252.695312 67.832031 253.925781 68.363281 255.0625 C 69.414062 255.121094 70.144531 254.144531 70.007812 253.152344 C 70.164062 251.816406 68.492188 251.726562 67.589844 251.414062 Z M 80.464844 251.898438 C 81.722656 251.886719 82.820312 252.644531 83.730469 253.445312 C 82.1875 253.722656 80.46875 253.832031 79.035156 253.082031 C 79.0625 252.371094 79.835938 251.96875 80.464844 251.898438 Z M 113.15625 256.523438 C 113.070312 256.53125 112.980469 256.558594 112.894531 256.59375 C 112.515625 256.785156 112.292969 257.179688 112.371094 257.609375 C 112.445312 258.476562 113.964844 258.617188 114.101562 257.742188 C 114.367188 257.105469 113.78125 256.46875 113.15625 256.523438 Z M 128.648438 259.039062 C 128.878906 259.046875 129.109375 259.117188 129.324219 259.265625 C 129 259.839844 128.613281 260.382812 128.152344 260.859375 C 127.878906 260.53125 127.285156 260.308594 127.375 259.792969 C 127.644531 259.332031 128.140625 259.03125 128.648438 259.039062 Z M 114.488281 261.867188 C 113.984375 262.316406 113.167969 262.710938 113.226562 263.5 C 113.214844 264.378906 113.96875 264.964844 114.527344 265.535156 C 114.742188 265.066406 114.828125 264.507812 115.183594 264.113281 C 115.941406 263.761719 116.820312 263.828125 117.621094 263.625 C 116.714844 262.816406 115.648438 262.222656 114.488281 261.867188 Z M 101.402344 262.859375 C 101.09375 263.996094 103.125 263.941406 102.71875 265.082031 C 102.460938 265.707031 102.734375 266.804688 103.609375 266.488281 C 103.800781 265.511719 103.820312 264.421875 103.265625 263.558594 C 102.863281 262.953125 102.078125 262.804688 101.402344 262.859375 Z M 81.949219 262.933594 C 81.339844 263.445312 80.703125 264.089844 80.921875 264.964844 C 81.257812 266.878906 82.511719 268.660156 84.148438 269.703125 C 84.214844 268.824219 84.1875 267.9375 83.917969 267.09375 C 83.476562 265.621094 83.097656 264.035156 81.949219 262.933594 Z M 126.269531 264.230469 C 126.109375 264.234375 125.785156 264.242188 125.621094 264.246094 C 125.363281 264.78125 124.429688 265.429688 125.109375 265.976562 C 126.25 266.265625 126.472656 265.058594 126.269531 264.230469 Z M 89.167969 265.585938 C 89.769531 267.4375 90.738281 269.183594 91.914062 270.730469 C 92.832031 271.96875 94.539062 272.3125 95.960938 271.878906 C 96.652344 271.652344 96.699219 270.742188 96.15625 270.328125 C 95.203125 269.546875 93.886719 269.492188 92.84375 268.871094 C 91.328125 268.121094 90.542969 266.519531 89.167969 265.585938 Z M 128.128906 266.0625 C 127.878906 266.042969 127.617188 266.109375 127.382812 266.285156 C 126.921875 266.519531 126.339844 267.265625 126.964844 267.65625 C 127.777344 267.964844 128.664062 267.78125 129.503906 267.707031 C 129.578125 266.914062 128.878906 266.117188 128.128906 266.0625 Z M 78.300781 267.050781 C 78.382812 268.96875 78.703125 271.296875 80.515625 272.371094 C 83.085938 273.886719 86.183594 273.824219 89.035156 274.375 C 87.378906 273.199219 85.90625 271.410156 83.730469 271.296875 C 81.226562 270.960938 80.394531 268.082031 78.300781 267.050781 Z M 110.84375 268.128906 C 110.359375 268.183594 109.8125 268.140625 109.421875 268.480469 C 109.261719 268.972656 109.363281 269.496094 109.375 270 C 110.222656 269.75 110.84375 269.035156 110.84375 268.128906 Z M 110.84375 268.128906 " fill-opacity="0.953" fill-rule="nonzero"/></svg>