<svg xmlns="http://www.w3.org/2000/svg" xmlns:xlink="http://www.w3.org/1999/xlink" width="512" zoomAndPan="magnify" viewBox="0 0 384 383.999986" height="512" preserveAspectRatio="xMidYMid meet" version="1.0"><defs><clipPath id="7404493497"><path d="M 11.550781 11.550781 L 372.449219 11.550781 L 372.449219 372.449219 L 11.550781 372.449219 Z M 11.550781 11.550781 " clip-rule="nonzero"/></clipPath><clipPath id="fe6c086a67"><path d="M 192 11.550781 C 92.339844 11.550781 11.550781 92.339844 11.550781 192 C 11.550781 291.660156 92.339844 372.449219 192 372.449219 C 291.660156 372.449219 372.449219 291.660156 372.449219 192 C 372.449219 92.339844 291.660156 11.550781 192 11.550781 Z M 192 11.550781 " clip-rule="nonzero"/></clipPath><clipPath id="12a78c9d65"><path d="M 0.550781 0.550781 L 361.449219 0.550781 L 361.449219 361.449219 L 0.550781 361.449219 Z M 0.550781 0.550781 " clip-rule="nonzero"/></clipPath><clipPath id="1d6f9a3b65"><path d="M 181 0.550781 C 81.339844 0.550781 0.550781 81.339844 0.550781 181 C 0.550781 280.660156 81.339844 361.449219 181 361.449219 C 280.660156 361.449219 361.449219 280.660156 361.449219 181 C 361.449219 81.339844 280.660156 0.550781 181 0.550781 Z M 181 0.550781 " clip-rule="nonzero"/></clipPath><clipPath id="028ed64e80"><rect x="0" width="362" y="0" height="362"/></clipPath><clipPath id="b778e0416f"><path d="M 38.398438 130 L 129 130 L 129 255 L 38.398438 255 Z M 38.398438 130 " clip-rule="nonzero"/></clipPath><clipPath id="143d71a689"><path d="M 135 128.699219 L 345.898438 128.699219 L 345.898438 255.449219 L 135 255.449219 Z M 135 128.699219 " clip-rule="nonzero"/></clipPath></defs><g clip-path="url(#7404493497)"><g clip-path="url(#fe6c086a67)"><g transform="matrix(1, 0, 0, 1, 11, 11)"><g clip-path="url(#028ed64e80)"><g clip-path="url(#12a78c9d65)"><g clip-path="url(#1d6f9a3b65)"><path fill="#ffffff" d="M 0.550781 0.550781 L 361.449219 0.550781 L 361.449219 361.449219 L 0.550781 361.449219 Z M 0.550781 0.550781 " fill-opacity="1" fill-rule="nonzero"/></g></g></g></g></g></g><g clip-path="url(#b778e0416f)"><path fill="#000000" d="M 128.625 254.710938 L 94.957031 254.710938 L 94.957031 206.53125 L 73.105469 206.53125 L 73.105469 254.710938 L 38.402344 254.710938 L 38.402344 130.535156 L 73.105469 130.535156 L 73.105469 176.726562 L 94.957031 176.726562 L 94.957031 130.535156 L 128.625 130.535156 L 128.625 254.710938 " fill-opacity="1" fill-rule="evenodd"/></g><g clip-path="url(#143d71a689)"><path fill="#000000" d="M 282.859375 216.558594 C 296.523438 216.558594 307.597656 205.457031 307.597656 191.757812 C 307.597656 178.0625 296.523438 166.957031 282.859375 166.957031 C 269.199219 166.957031 258.125 178.0625 258.125 191.757812 C 258.125 205.457031 269.199219 216.558594 282.859375 216.558594 Z M 251.394531 191.757812 C 251.394531 174.335938 265.480469 160.207031 282.859375 160.207031 C 300.238281 160.207031 314.328125 174.335938 314.328125 191.757812 C 314.328125 209.183594 300.238281 223.308594 282.859375 223.308594 C 265.480469 223.308594 251.394531 209.183594 251.394531 191.757812 Z M 207.578125 191.757812 C 211.472656 191.261719 217.964844 186.800781 220.25 183.949219 C 219.445312 187.484375 219.382812 197.707031 220.324219 201.238281 C 217.714844 197.210938 211.535156 192.253906 207.578125 191.757812 Z M 184.957031 158.355469 C 189.902344 158.355469 193.796875 163.25 193.796875 168.828125 C 193.796875 174.40625 189.902344 179.304688 184.957031 179.304688 L 167.960938 179.304688 L 167.960938 158.355469 Z M 184.894531 204.894531 C 189.839844 204.894531 193.734375 209.792969 193.734375 215.367188 C 193.734375 220.945312 189.839844 225.839844 184.894531 225.839844 L 167.898438 225.839844 L 167.898438 204.894531 Z M 282.839844 255.324219 C 317.472656 255.3125 345.65625 226.460938 345.648438 191.734375 C 345.640625 156.273438 317.472656 128.726562 282.839844 128.699219 C 248.246094 128.675781 230.574219 154.207031 226.207031 164.511719 C 226.246094 149.039062 211.039062 130.78125 193.25 130.761719 L 135.9375 130.761719 L 135.9375 254.707031 L 189.371094 254.71875 C 210.917969 254.71875 226.246094 236 226.273438 219.953125 C 231.1875 230.054688 248.246094 255.335938 282.839844 255.324219 Z M 282.839844 255.324219 " fill-opacity="1" fill-rule="evenodd"/></g></svg>