<svg xmlns="http://www.w3.org/2000/svg" xmlns:xlink="http://www.w3.org/1999/xlink" width="512" zoomAndPan="magnify" viewBox="0 0 384 383.999986" height="512" preserveAspectRatio="xMidYMid meet" version="1.0"><defs><clipPath id="a330abd59e"><path d="M 11.550781 11.550781 L 372.449219 11.550781 L 372.449219 372.449219 L 11.550781 372.449219 Z M 11.550781 11.550781 " clip-rule="nonzero"/></clipPath><clipPath id="5453da0d79"><path d="M 192 11.550781 C 92.339844 11.550781 11.550781 92.339844 11.550781 192 C 11.550781 291.660156 92.339844 372.449219 192 372.449219 C 291.660156 372.449219 372.449219 291.660156 372.449219 192 C 372.449219 92.339844 291.660156 11.550781 192 11.550781 Z M 192 11.550781 " clip-rule="nonzero"/></clipPath><clipPath id="264fa86f07"><path d="M 0.550781 0.550781 L 361.449219 0.550781 L 361.449219 361.449219 L 0.550781 361.449219 Z M 0.550781 0.550781 " clip-rule="nonzero"/></clipPath><clipPath id="35a894b06f"><path d="M 181 0.550781 C 81.339844 0.550781 0.550781 81.339844 0.550781 181 C 0.550781 280.660156 81.339844 361.449219 181 361.449219 C 280.660156 361.449219 361.449219 280.660156 361.449219 181 C 361.449219 81.339844 280.660156 0.550781 181 0.550781 Z M 181 0.550781 " clip-rule="nonzero"/></clipPath><clipPath id="71f5c85c2a"><rect x="0" width="362" y="0" height="362"/></clipPath><clipPath id="ac33dd6eb5"><path d="M 29 138.523438 L 354.96875 138.523438 L 354.96875 245.773438 L 29 245.773438 Z M 29 138.523438 " clip-rule="nonzero"/></clipPath><clipPath id="e084d4ec7d"><path d="M 80.324219 171.988281 L 63.761719 171.988281 C 60.78125 171.84375 57.804688 172.375 55.054688 173.542969 L 55.054688 138.523438 L 29.195312 138.523438 L 29.195312 245.773438 L 55 245.773438 L 55 202.5 C 55 200.65625 55.734375 198.886719 57.039062 197.589844 C 58.339844 196.289062 60.109375 195.566406 61.945312 195.582031 L 76.957031 195.582031 C 78.792969 195.566406 80.5625 196.289062 81.863281 197.589844 C 83.167969 198.886719 83.902344 200.65625 83.902344 202.5 L 83.902344 245.773438 L 109.757812 245.773438 L 109.757812 199.121094 C 109.757812 179.496094 96.722656 171.988281 80.375 171.988281 L 80.324219 171.988281 M 328.632812 171.988281 L 328.632812 215.261719 C 328.632812 219.082031 325.546875 222.179688 321.742188 222.179688 L 306.675781 222.179688 C 304.839844 222.195312 303.070312 221.472656 301.769531 220.171875 C 300.464844 218.875 299.730469 217.105469 299.730469 215.261719 L 299.730469 171.988281 L 273.925781 171.988281 L 273.925781 217.40625 C 273.925781 236.015625 285.625 245.773438 303.363281 245.773438 L 328.632812 245.773438 C 344.660156 245.773438 354.488281 234.246094 354.488281 217.570312 L 354.488281 171.988281 L 328.632812 171.988281 M 182.894531 215.261719 C 182.894531 217.105469 182.160156 218.875 180.855469 220.171875 C 179.554688 221.472656 177.785156 222.195312 175.949219 222.179688 L 160.9375 222.179688 C 159.101562 222.195312 157.332031 221.472656 156.03125 220.171875 C 154.726562 218.875 153.992188 217.105469 153.992188 215.261719 L 153.992188 171.988281 L 128.191406 171.988281 L 128.191406 217.40625 C 128.191406 236.015625 140.050781 245.773438 157.410156 245.773438 L 182.679688 245.773438 C 198.707031 245.773438 208.539062 234.246094 208.539062 217.570312 L 208.539062 171.988281 L 182.894531 171.988281 L 182.894531 215.261719 M 228.410156 245.773438 L 254.265625 245.773438 L 254.265625 138.523438 L 228.410156 138.523438 L 228.410156 245.773438 " clip-rule="nonzero"/></clipPath><linearGradient x1="0.00716489" gradientTransform="matrix(5.342278, 0, 0, 5.362502, 29.19719, 138.525095)" y1="20.002894" x2="15.536408" gradientUnits="userSpaceOnUse" y2="-18.35937" id="92709a3e42"><stop stop-opacity="1" stop-color="rgb(18.429565%, 74.508667%, 61.569214%)" offset="0"/><stop stop-opacity="1" stop-color="rgb(18.612671%, 74.594116%, 61.541748%)" offset="0.25"/><stop stop-opacity="1" stop-color="rgb(18.968201%, 74.761963%, 61.489868%)" offset="0.257812"/><stop stop-opacity="1" stop-color="rgb(19.314575%, 74.925232%, 61.437988%)" offset="0.265625"/><stop stop-opacity="1" stop-color="rgb(19.659424%, 75.088501%, 61.387634%)" offset="0.273438"/><stop stop-opacity="1" stop-color="rgb(20.005798%, 75.250244%, 61.33728%)" offset="0.28125"/><stop stop-opacity="1" stop-color="rgb(20.352173%, 75.413513%, 61.2854%)" offset="0.289062"/><stop stop-opacity="1" stop-color="rgb(20.697021%, 75.575256%, 61.235046%)" offset="0.296875"/><stop stop-opacity="1" stop-color="rgb(21.043396%, 75.738525%, 61.184692%)" offset="0.304688"/><stop stop-opacity="1" stop-color="rgb(21.388245%, 75.901794%, 61.132812%)" offset="0.3125"/><stop stop-opacity="1" stop-color="rgb(21.734619%, 76.063538%, 61.082458%)" offset="0.320312"/><stop stop-opacity="1" stop-color="rgb(22.080994%, 76.226807%, 61.032104%)" offset="0.328125"/><stop stop-opacity="1" stop-color="rgb(22.425842%, 76.38855%, 60.980225%)" offset="0.335938"/><stop stop-opacity="1" stop-color="rgb(22.772217%, 76.551819%, 60.929871%)" offset="0.34375"/><stop stop-opacity="1" stop-color="rgb(23.117065%, 76.715088%, 60.879517%)" offset="0.351562"/><stop stop-opacity="1" stop-color="rgb(23.46344%, 76.876831%, 60.829163%)" offset="0.359375"/><stop stop-opacity="1" stop-color="rgb(23.809814%, 77.0401%, 60.777283%)" offset="0.367188"/><stop stop-opacity="1" stop-color="rgb(24.154663%, 77.201843%, 60.726929%)" offset="0.375"/><stop stop-opacity="1" stop-color="rgb(24.501038%, 77.365112%, 60.676575%)" offset="0.382812"/><stop stop-opacity="1" stop-color="rgb(24.845886%, 77.526855%, 60.624695%)" offset="0.390625"/><stop stop-opacity="1" stop-color="rgb(25.192261%, 77.690125%, 60.574341%)" offset="0.398438"/><stop stop-opacity="1" stop-color="rgb(25.538635%, 77.853394%, 60.523987%)" offset="0.40625"/><stop stop-opacity="1" stop-color="rgb(25.883484%, 78.015137%, 60.472107%)" offset="0.414062"/><stop stop-opacity="1" stop-color="rgb(26.229858%, 78.178406%, 60.421753%)" offset="0.421875"/><stop stop-opacity="1" stop-color="rgb(26.574707%, 78.340149%, 60.371399%)" offset="0.429688"/><stop stop-opacity="1" stop-color="rgb(26.921082%, 78.503418%, 60.319519%)" offset="0.4375"/><stop stop-opacity="1" stop-color="rgb(27.267456%, 78.666687%, 60.269165%)" offset="0.445312"/><stop stop-opacity="1" stop-color="rgb(27.612305%, 78.82843%, 60.218811%)" offset="0.447942"/><stop stop-opacity="1" stop-color="rgb(27.786255%, 78.910828%, 60.192871%)" offset="0.453125"/><stop stop-opacity="1" stop-color="rgb(27.958679%, 78.991699%, 60.166931%)" offset="0.460938"/><stop stop-opacity="1" stop-color="rgb(28.303528%, 79.153442%, 60.116577%)" offset="0.46875"/><stop stop-opacity="1" stop-color="rgb(28.649902%, 79.316711%, 60.066223%)" offset="0.476562"/><stop stop-opacity="1" stop-color="rgb(28.996277%, 79.478455%, 60.014343%)" offset="0.484375"/><stop stop-opacity="1" stop-color="rgb(29.341125%, 79.641724%, 59.963989%)" offset="0.492188"/><stop stop-opacity="1" stop-color="rgb(29.6875%, 79.804993%, 59.913635%)" offset="0.5"/><stop stop-opacity="1" stop-color="rgb(30.032349%, 79.966736%, 59.861755%)" offset="0.507812"/><stop stop-opacity="1" stop-color="rgb(30.378723%, 80.130005%, 59.811401%)" offset="0.515625"/><stop stop-opacity="1" stop-color="rgb(30.725098%, 80.291748%, 59.761047%)" offset="0.523438"/><stop stop-opacity="1" stop-color="rgb(31.069946%, 80.455017%, 59.710693%)" offset="0.53125"/><stop stop-opacity="1" stop-color="rgb(31.416321%, 80.618286%, 59.658813%)" offset="0.539062"/><stop stop-opacity="1" stop-color="rgb(31.674194%, 80.738831%, 59.622192%)" offset="0.546875"/><stop stop-opacity="1" stop-color="rgb(31.759644%, 80.778503%, 59.609985%)" offset="0.552058"/><stop stop-opacity="1" stop-color="rgb(31.759644%, 80.778503%, 59.609985%)" offset="0.5625"/><stop stop-opacity="1" stop-color="rgb(31.759644%, 80.778503%, 59.609985%)" offset="0.625"/><stop stop-opacity="1" stop-color="rgb(31.759644%, 80.778503%, 59.609985%)" offset="0.75"/><stop stop-opacity="1" stop-color="rgb(31.759644%, 80.778503%, 59.609985%)" offset="1"/></linearGradient></defs><g clip-path="url(#a330abd59e)"><g clip-path="url(#5453da0d79)"><g transform="matrix(1, 0, 0, 1, 11, 11)"><g clip-path="url(#71f5c85c2a)"><g clip-path="url(#264fa86f07)"><g clip-path="url(#35a894b06f)"><path fill="#ffffff" d="M 0.550781 0.550781 L 361.449219 0.550781 L 361.449219 361.449219 L 0.550781 361.449219 Z M 0.550781 0.550781 " fill-opacity="1" fill-rule="nonzero"/></g></g></g></g></g></g><g clip-path="url(#ac33dd6eb5)"><g clip-path="url(#e084d4ec7d)"><path fill="url(#92709a3e42)" d="M 29.195312 138.523438 L 29.195312 245.773438 L 354.488281 245.773438 L 354.488281 138.523438 Z M 29.195312 138.523438 " fill-rule="nonzero"/></g></g></svg>