<svg xmlns="http://www.w3.org/2000/svg" xmlns:xlink="http://www.w3.org/1999/xlink" width="512" zoomAndPan="magnify" viewBox="0 0 384 383.999986" height="512" preserveAspectRatio="xMidYMid meet" version="1.0"><defs><clipPath id="bbaffa8ad2"><path d="M 11.550781 11.550781 L 372.449219 11.550781 L 372.449219 372.449219 L 11.550781 372.449219 Z M 11.550781 11.550781 " clip-rule="nonzero"/></clipPath><clipPath id="90359db94e"><path d="M 192 11.550781 C 92.339844 11.550781 11.550781 92.339844 11.550781 192 C 11.550781 291.660156 92.339844 372.449219 192 372.449219 C 291.660156 372.449219 372.449219 291.660156 372.449219 192 C 372.449219 92.339844 291.660156 11.550781 192 11.550781 Z M 192 11.550781 " clip-rule="nonzero"/></clipPath><clipPath id="aa1bcfda73"><path d="M 0.550781 0.550781 L 361.449219 0.550781 L 361.449219 361.449219 L 0.550781 361.449219 Z M 0.550781 0.550781 " clip-rule="nonzero"/></clipPath><clipPath id="650ce31f04"><path d="M 181 0.550781 C 81.339844 0.550781 0.550781 81.339844 0.550781 181 C 0.550781 280.660156 81.339844 361.449219 181 361.449219 C 280.660156 361.449219 361.449219 280.660156 361.449219 181 C 361.449219 81.339844 280.660156 0.550781 181 0.550781 Z M 181 0.550781 " clip-rule="nonzero"/></clipPath><clipPath id="3eab178e28"><rect x="0" width="362" y="0" height="362"/></clipPath><clipPath id="c5b4602baa"><path d="M 23.261719 146.652344 L 360.761719 146.652344 L 360.761719 237.402344 L 23.261719 237.402344 Z M 23.261719 146.652344 " clip-rule="nonzero"/></clipPath></defs><g clip-path="url(#bbaffa8ad2)"><g clip-path="url(#90359db94e)"><g transform="matrix(1, 0, 0, 1, 11, 11)"><g clip-path="url(#3eab178e28)"><g clip-path="url(#aa1bcfda73)"><g clip-path="url(#650ce31f04)"><path fill="#ffffff" d="M 0.550781 0.550781 L 361.449219 0.550781 L 361.449219 361.449219 L 0.550781 361.449219 Z M 0.550781 0.550781 " fill-opacity="1" fill-rule="nonzero"/></g></g></g></g></g></g><g clip-path="url(#c5b4602baa)"><path fill="#db202c" d="M 247.816406 146.660156 L 233.601562 146.660156 L 233.601562 226.191406 C 246.519531 226.636719 259.382812 227.285156 272.191406 228.140625 L 272.191406 214.128906 C 264.089844 213.589844 255.960938 213.128906 247.816406 212.75 Z M 360.761719 146.667969 L 345.152344 146.667969 L 334.863281 170.535156 L 325.613281 146.667969 L 310.238281 146.667969 L 326.761719 189.316406 L 308.71875 231.152344 C 313.707031 231.636719 318.683594 232.15625 323.65625 232.707031 L 334.144531 208.382812 L 344.535156 235.195312 C 349.949219 235.890625 355.347656 236.617188 360.734375 237.386719 L 360.757812 237.378906 L 342.253906 189.601562 Z M 184.820312 225.496094 L 199.035156 225.492188 L 199.035156 193.140625 L 218.300781 193.140625 L 218.300781 179.128906 L 199.035156 179.128906 L 199.035156 160.804688 L 224.496094 160.804688 L 224.496094 146.667969 L 184.820312 146.667969 Z M 131.75 160.808594 L 146.625 160.808594 L 146.625 226.328125 C 151.351562 226.152344 156.089844 226.003906 160.835938 225.878906 L 160.835938 160.804688 L 175.710938 160.804688 L 175.710938 146.667969 L 131.75 146.667969 Z M 83.160156 230.402344 C 96.257812 229.210938 109.417969 228.230469 122.636719 227.46875 L 122.636719 213.457031 C 114.191406 213.941406 105.769531 214.523438 97.371094 215.183594 L 97.371094 193.96875 C 102.882812 193.914062 110.136719 193.746094 116.5625 193.824219 L 116.5625 179.8125 C 111.429688 179.800781 103.175781 179.882812 97.371094 179.957031 L 97.371094 160.808594 L 122.636719 160.808594 L 122.636719 146.671875 L 83.160156 146.671875 Z M 55.277344 198.011719 L 36.769531 146.667969 L 23.261719 146.667969 L 23.261719 237.390625 C 27.988281 236.71875 32.726562 236.074219 37.472656 235.453125 L 37.472656 186.117188 L 53.933594 233.429688 C 59.109375 232.828125 64.296875 232.257812 69.492188 231.722656 L 69.492188 146.667969 L 55.277344 146.667969 Z M 283.917969 228.988281 C 288.664062 229.351562 293.398438 229.738281 298.132812 230.160156 L 298.132812 146.667969 L 283.917969 146.667969 L 283.917969 228.988281 " fill-opacity="1" fill-rule="nonzero"/></g></svg>