<svg xmlns="http://www.w3.org/2000/svg" xmlns:xlink="http://www.w3.org/1999/xlink" width="512" zoomAndPan="magnify" viewBox="0 0 384 383.999986" height="512" preserveAspectRatio="xMidYMid meet" version="1.0"><defs><clipPath id="6889a48ef7"><path d="M 11.550781 11.550781 L 372.449219 11.550781 L 372.449219 372.449219 L 11.550781 372.449219 Z M 11.550781 11.550781 " clip-rule="nonzero"/></clipPath><clipPath id="c8f297fe02"><path d="M 192 11.550781 C 92.339844 11.550781 11.550781 92.339844 11.550781 192 C 11.550781 291.660156 92.339844 372.449219 192 372.449219 C 291.660156 372.449219 372.449219 291.660156 372.449219 192 C 372.449219 92.339844 291.660156 11.550781 192 11.550781 Z M 192 11.550781 " clip-rule="nonzero"/></clipPath><clipPath id="a80755190c"><path d="M 0.550781 0.550781 L 361.449219 0.550781 L 361.449219 361.449219 L 0.550781 361.449219 Z M 0.550781 0.550781 " clip-rule="nonzero"/></clipPath><clipPath id="ea9ad57bdd"><path d="M 181 0.550781 C 81.339844 0.550781 0.550781 81.339844 0.550781 181 C 0.550781 280.660156 81.339844 361.449219 181 361.449219 C 280.660156 361.449219 361.449219 280.660156 361.449219 181 C 361.449219 81.339844 280.660156 0.550781 181 0.550781 Z M 181 0.550781 " clip-rule="nonzero"/></clipPath><clipPath id="9702ecf132"><rect x="0" width="362" y="0" height="362"/></clipPath><clipPath id="40892c1094"><path d="M 38.398438 96.382812 L 345.898438 96.382812 L 345.898438 287.632812 L 38.398438 287.632812 Z M 38.398438 96.382812 " clip-rule="nonzero"/></clipPath></defs><g clip-path="url(#6889a48ef7)"><g clip-path="url(#c8f297fe02)"><g transform="matrix(1, 0, 0, 1, 11, 11)"><g clip-path="url(#9702ecf132)"><g clip-path="url(#a80755190c)"><g clip-path="url(#ea9ad57bdd)"><path fill="#ffffff" d="M 0.550781 0.550781 L 361.449219 0.550781 L 361.449219 361.449219 L 0.550781 361.449219 Z M 0.550781 0.550781 " fill-opacity="1" fill-rule="nonzero"/></g></g></g></g></g></g><g clip-path="url(#40892c1094)"><path fill="#0064ff" d="M 175.386719 194.722656 C 174.628906 194.40625 173.390625 193.019531 175.453125 189.148438 L 180.242188 179.144531 C 180.390625 178.84375 180.039062 178.464844 179.820312 178.722656 L 175.632812 182.929688 C 173.652344 184.996094 170.289062 190.804688 169.636719 191.878906 L 164.550781 200.285156 C 164.925781 200.273438 165.242188 200.570312 165.253906 200.949219 C 165.257812 201.070312 165.230469 201.195312 165.167969 201.304688 L 160.519531 209.109375 C 159.382812 211.042969 161.421875 212.398438 161.699219 211.953125 C 169.007812 200.1875 173.261719 201.125 173.261719 201.125 L 175.703125 195.480469 C 175.828125 195.199219 175.703125 194.863281 175.421875 194.734375 C 175.410156 194.730469 175.398438 194.726562 175.386719 194.722656 Z M 192.007812 96.425781 C 150.210938 96.425781 116.328125 130.261719 116.328125 172 C 116.308594 188.160156 121.496094 203.894531 131.125 216.875 C 134.300781 215.503906 136.0625 213.460938 137.324219 211.890625 L 151.414062 193.894531 C 151.710938 193.515625 152.097656 193.21875 152.542969 193.027344 L 154.664062 192.117188 L 177.832031 162.769531 L 181.191406 160.140625 L 188.09375 150.546875 C 188.273438 150.296875 188.488281 150.078125 188.738281 149.898438 L 191.75 147.710938 C 192.492188 147.171875 193.5 147.164062 194.25 147.691406 L 197.90625 150.253906 C 199.847656 151.613281 201.417969 153.429688 202.480469 155.542969 L 217.121094 181.222656 C 217.359375 181.714844 217.765625 182.101562 218.265625 182.320312 C 221.136719 183.746094 222.894531 184 226.648438 188.074219 C 228.402344 189.976562 236.085938 198.558594 246.855469 211.894531 C 248.417969 214.035156 250.515625 215.730469 252.933594 216.816406 C 262.535156 203.84375 267.703125 188.132812 267.679688 172 C 267.679688 130.261719 233.800781 96.425781 192.007812 96.425781 Z M 136.738281 176.167969 L 131.832031 174.574219 L 128.800781 178.742188 L 128.800781 173.59375 L 123.894531 172 L 128.800781 170.410156 L 128.800781 165.257812 L 131.832031 169.425781 L 136.738281 167.835938 L 133.707031 172 Z M 135.574219 193.019531 L 133.980469 197.914062 L 132.386719 193.019531 L 127.230469 193.019531 L 131.402344 189.988281 L 129.808594 185.09375 L 133.980469 188.121094 L 138.152344 185.09375 L 136.558594 189.988281 L 140.730469 193.019531 Z M 136.558594 154.007812 L 138.152344 158.90625 L 133.980469 155.878906 L 129.808594 158.90625 L 131.402344 154.007812 L 127.230469 150.980469 L 132.386719 150.980469 L 133.980469 146.082031 L 135.574219 150.980469 L 140.734375 150.980469 Z M 144.839844 142.929688 L 141.8125 138.761719 L 136.90625 140.351562 L 139.9375 136.1875 L 136.90625 132.019531 L 141.8125 133.613281 L 144.84375 129.445312 L 144.84375 134.59375 L 149.75 136.183594 L 144.84375 137.777344 L 144.84375 142.925781 Z M 157.738281 124.898438 L 156.144531 129.796875 L 154.550781 124.898438 L 149.394531 124.898438 L 153.566406 121.871094 L 151.972656 116.972656 L 156.144531 120 L 160.316406 116.972656 L 158.722656 121.875 L 162.894531 124.902344 L 157.738281 124.902344 Z M 173.992188 116.628906 L 170.960938 120.796875 L 170.960938 115.644531 L 166.054688 114.054688 L 170.960938 112.460938 L 170.960938 107.3125 L 173.992188 111.480469 L 178.894531 109.886719 L 175.863281 114.054688 L 178.894531 118.222656 Z M 194.585938 111.90625 L 196.179688 116.804688 L 192.007812 113.777344 L 187.835938 116.804688 L 189.425781 111.910156 L 185.253906 108.882812 L 190.410156 108.882812 L 192.003906 103.984375 L 193.597656 108.882812 L 198.757812 108.882812 Z M 213.050781 115.644531 L 213.050781 120.796875 L 210.023438 116.628906 L 205.113281 118.222656 L 208.144531 114.054688 L 205.117188 109.886719 L 210.023438 111.480469 L 213.050781 107.3125 L 213.050781 112.460938 L 217.960938 114.054688 Z M 247.273438 167.835938 L 252.179688 169.425781 L 255.210938 165.257812 L 255.210938 170.410156 L 260.117188 172 L 255.210938 173.59375 L 255.210938 178.742188 L 252.179688 174.574219 L 247.273438 176.167969 L 250.308594 172 Z M 227.867188 129.796875 L 226.273438 124.898438 L 221.117188 124.898438 L 225.289062 121.871094 L 223.695312 116.972656 L 227.867188 120 L 232.039062 116.972656 L 230.449219 121.871094 L 234.617188 124.898438 L 229.460938 124.898438 Z M 239.171875 142.929688 L 239.171875 137.78125 L 234.265625 136.1875 L 239.171875 134.597656 L 239.171875 129.445312 L 242.203125 133.613281 L 247.109375 132.023438 L 244.078125 136.1875 L 247.109375 140.355469 L 242.203125 138.761719 Z M 248.433594 150.980469 L 250.03125 146.085938 L 251.625 150.980469 L 256.78125 150.980469 L 252.613281 154.011719 L 254.207031 158.90625 L 250.03125 155.878906 L 245.859375 158.90625 L 247.453125 154.011719 L 243.28125 150.980469 Z M 251.625 193.019531 L 250.03125 197.914062 L 248.433594 193.019531 L 243.277344 193.019531 L 247.453125 189.988281 L 245.859375 185.09375 L 250.03125 188.121094 L 254.203125 185.09375 L 252.609375 189.988281 L 256.78125 193.019531 Z M 219.417969 215.675781 C 219.78125 215.148438 220.371094 213.699219 219.261719 211.019531 L 215.914062 202.023438 C 215.460938 200.875 216.453125 200.179688 217.121094 200.933594 C 217.121094 200.933594 223.453125 208.222656 225.085938 211.265625 L 228.207031 216.441406 C 230.894531 216.613281 238.304688 216.816406 245.4375 216.816406 C 244.71875 216.105469 244.054688 215.339844 243.449219 214.527344 C 231.28125 199.457031 223.558594 191.070312 223.484375 190.988281 C 221.015625 188.3125 219.875 187.796875 217.992188 186.941406 C 217.722656 186.816406 217.425781 186.683594 217.121094 186.539062 L 217.121094 188.828125 C 217.140625 188.980469 217.03125 189.121094 216.875 189.140625 C 216.75 189.15625 216.628906 189.085938 216.582031 188.96875 L 198.6875 157.574219 L 198.636719 157.476562 C 197.890625 155.996094 196.789062 154.722656 195.433594 153.773438 L 193.6875 152.546875 L 185.152344 172.214844 C 186.171875 172.214844 187 173.042969 187 174.058594 C 187 174.3125 186.949219 174.5625 186.847656 174.792969 L 178.960938 193.015625 L 186.199219 193.015625 C 189 193.015625 191.769531 193.5625 194.359375 194.621094 L 196.269531 195.402344 C 196.269531 195.402344 190.511719 207.234375 190.511719 213.460938 C 190.519531 214.597656 190.675781 215.722656 190.980469 216.8125 L 204.253906 216.8125 L 203.640625 213.078125 C 208.84375 214.242188 214.113281 215.109375 219.417969 215.679688 Z M 117.003906 234.847656 C 117.003906 222.675781 104.085938 216.816406 88.734375 216.816406 C 72.316406 216.816406 57.25 224.085938 51.71875 235.355469 C 50.191406 238.355469 49.398438 241.679688 49.40625 245.046875 C 49.335938 247.957031 50.140625 250.824219 51.71875 253.273438 C 54.089844 256.769531 58.320312 258.964844 64.527344 258.964844 C 72.144531 258.964844 78.183594 254.792969 78.183594 247.527344 C 78.183594 247.527344 78.296875 245.5 75.925781 245.5 C 74.007812 245.5 73.5 246.851562 73.554688 247.527344 C 73.839844 253.21875 70.453125 257.78125 64.414062 257.78125 C 57.644531 257.78125 54.820312 252.035156 54.820312 245.894531 C 54.820312 233.328125 64.300781 224.984375 74.175781 221.378906 C 78.792969 219.640625 83.691406 218.777344 88.625 218.84375 C 99.796875 218.84375 108.9375 223.125 108.9375 234.621094 C 108.9375 244.199219 100.871094 252.371094 91.21875 253.105469 L 91.613281 251.808594 C 93.589844 244.765625 96.015625 237.046875 99.964844 231.355469 C 100.191406 231.015625 100.585938 230.453125 101.039062 229.890625 L 100.472656 229.210938 C 99.628906 229.722656 98.820312 230.289062 98.046875 230.902344 C 79.539062 245.328125 78.976562 285.898438 54.316406 285.898438 C 53.46875 285.898438 52.617188 285.84375 51.777344 285.730469 C 46.644531 284.886719 43.933594 281.449219 43.933594 276.660156 C 43.933594 275.703125 44.273438 274.40625 44.273438 273.675781 C 44.3125 272.3125 43.238281 271.179688 41.875 271.136719 C 41.867188 271.136719 41.855469 271.136719 41.84375 271.136719 L 41.5625 271.136719 C 39.363281 271.136719 38.460938 272.882812 38.40625 275.363281 C 38.234375 282.519531 43.539062 286.6875 51.722656 287.480469 C 52.625 287.535156 53.527344 287.589844 54.484375 287.589844 C 73.726562 287.589844 85.519531 273.054688 90.542969 255.414062 C 93.085938 255.117188 95.597656 254.589844 98.046875 253.839844 C 106.964844 251.355469 117.003906 245.386719 117.003906 234.847656 Z M 300.285156 239.074219 L 293.511719 239.074219 L 291.988281 242.625 L 289.335938 248.597656 L 286.175781 248.597656 L 285.214844 250.625 L 288.488281 250.625 L 284.539062 259.359375 C 281.71875 265.503906 277.316406 271.53125 274.777344 271.53125 C 274.214844 271.53125 273.875 271.304688 273.875 270.742188 C 273.875 270.183594 274.042969 269.671875 274.664062 268.09375 C 275.453125 266.234375 276.753906 263.53125 277.710938 261.558594 C 279.121094 258.683594 281.378906 254.234375 281.378906 252.035156 C 281.378906 249.835938 279.972656 248.089844 277.203125 248.089844 C 274.101562 248.089844 271.277344 249.953125 268.679688 252.652344 L 270.375 248.597656 L 264 248.597656 L 258.808594 260.429688 C 256.722656 264.601562 252.488281 271.53125 249.835938 271.53125 C 249.269531 271.53125 249.042969 271.191406 249.042969 270.628906 C 249.097656 270.125 249.230469 269.628906 249.4375 269.164062 C 249.667969 268.65625 252.769531 261.386719 252.769531 261.386719 L 258.414062 248.484375 L 251.527344 248.484375 L 246.054688 261.050781 C 244.363281 264.9375 240.074219 271.53125 237.308594 271.53125 C 236.828125 271.578125 236.398438 271.226562 236.351562 270.742188 L 236.351562 270.515625 C 236.351562 269.839844 236.859375 268.601562 237.253906 267.699219 L 240.128906 261.386719 L 246.054688 248.484375 L 239.230469 248.484375 L 237.871094 251.414062 C 236.859375 253.386719 235.164062 255.695312 232.457031 255.695312 C 231.15625 255.695312 230.539062 255.191406 230.257812 254.683594 C 229.863281 250.34375 227.09375 248.03125 223.035156 248.03125 C 217.390625 248.03125 213.382812 251.355469 210.730469 255.414062 C 208.992188 258.210938 207.625 261.222656 206.667969 264.375 C 204.242188 268.375 201.703125 271.476562 199.671875 271.476562 C 199.164062 271.476562 198.824219 271.191406 198.824219 270.515625 C 198.824219 269.839844 199.503906 268.320312 199.726562 267.753906 L 204.1875 258.289062 C 205.425781 255.359375 206.277344 253.441406 206.277344 251.527344 C 206.277344 249.496094 204.867188 248.03125 202.550781 248.03125 C 199.332031 248.03125 195.835938 249.890625 193.070312 252.933594 C 193.164062 252.449219 193.203125 251.957031 193.183594 251.46875 C 193.183594 249.214844 192.054688 248.03125 189.738281 248.03125 C 186.808594 248.03125 183.761719 249.777344 180.996094 252.933594 L 182.800781 248.535156 L 176.59375 248.535156 L 171.347656 260.371094 C 168.863281 265.953125 164.859375 271.476562 162.601562 271.476562 C 162.09375 271.476562 161.753906 271.191406 161.753906 270.515625 C 161.753906 269.445312 162.9375 266.796875 163.390625 265.726562 L 170.332031 250.003906 C 170.839844 248.820312 167.507812 248.089844 163.277344 248.089844 C 158.933594 248.089844 154.472656 250.230469 151.203125 252.992188 C 148.890625 254.90625 147.195312 255.863281 146.347656 255.863281 C 146.070312 255.925781 145.800781 255.746094 145.738281 255.472656 C 145.730469 255.433594 145.726562 255.394531 145.726562 255.359375 C 145.726562 254.398438 148.042969 251.695312 148.042969 249.609375 C 148.042969 248.652344 147.535156 248.03125 146.234375 248.03125 C 143.753906 248.03125 140.816406 250.398438 138.675781 252.878906 L 140.480469 248.539062 L 134.386719 248.539062 L 129.140625 260.371094 C 126.65625 265.953125 122.539062 271.757812 120.28125 271.757812 C 119.773438 271.757812 119.433594 271.476562 119.433594 270.796875 C 119.433594 269.726562 120.5625 267.136719 121.183594 265.78125 L 128.125 250.003906 C 128.632812 248.820312 125.304688 248.089844 121.070312 248.089844 C 114.808594 248.089844 108.710938 252.316406 105.496094 256.652344 C 101.941406 261.328125 99.515625 266.289062 99.460938 270.347656 C 99.402344 273.617188 101.09375 275.644531 104.480469 275.644531 C 108.261719 275.644531 111.308594 272.65625 113.058594 270.402344 C 112.953125 270.847656 112.878906 271.300781 112.832031 271.757812 C 112.832031 274.007812 113.734375 275.644531 116.5 275.644531 C 118.925781 275.644531 122.140625 273.613281 124.738281 270.402344 L 122.644531 275.191406 L 129.246094 275.191406 L 135.738281 260.484375 C 137.886719 255.695312 140.3125 253.21875 140.988281 253.21875 C 141.144531 253.1875 141.292969 253.289062 141.324219 253.445312 C 141.324219 253.460938 141.328125 253.480469 141.328125 253.5 C 141.328125 254.007812 140.3125 255.359375 140.3125 256.597656 C 140.3125 257.835938 140.988281 258.796875 142.796875 258.796875 C 144.203125 258.796875 145.785156 258.117188 147.195312 257.214844 C 143.867188 261.726562 141.609375 266.457031 141.609375 270.347656 C 141.554688 273.617188 143.242188 275.644531 146.628906 275.644531 C 150.183594 275.644531 153.515625 272.261719 155.320312 270.007812 C 155.25 270.53125 155.214844 271.058594 155.207031 271.585938 C 155.207031 273.785156 156.449219 275.644531 158.988281 275.644531 C 161.808594 275.644531 164.066406 273.898438 166.886719 270.460938 L 164.796875 275.195312 L 171.566406 275.195312 L 177.773438 261.164062 C 180.484375 255.078125 184.148438 251.808594 185.957031 251.808594 C 186.40625 251.761719 186.8125 252.085938 186.859375 252.539062 C 186.859375 252.539062 186.859375 252.539062 186.859375 252.542969 L 186.859375 252.710938 C 186.785156 253.394531 186.59375 254.0625 186.292969 254.679688 L 177.386719 275.25 L 184.328125 275.25 L 190.648438 260.9375 C 193.355469 254.792969 196.347656 251.808594 198.605469 251.808594 C 199.28125 251.808594 199.5625 252.148438 199.5625 252.878906 C 199.503906 253.664062 199.292969 254.429688 198.941406 255.132812 L 192.847656 268.09375 C 192.285156 269.339844 191.945312 270.675781 191.832031 272.039062 C 191.832031 274.011719 192.902344 275.757812 195.953125 275.757812 C 199.90625 275.757812 202.894531 272.773438 206.277344 268.320312 L 206.277344 269.277344 C 206.558594 272.828125 208.535156 275.929688 213.78125 275.929688 C 219.988281 275.929688 225.011719 271.644531 228.058594 264.828125 C 229.207031 262.433594 229.953125 259.859375 230.261719 257.21875 C 230.941406 257.5625 231.699219 257.71875 232.460938 257.671875 C 233.484375 257.683594 234.496094 257.429688 235.394531 256.9375 L 234.324219 259.25 C 233.078125 261.839844 231.722656 264.714844 230.65625 267.140625 C 229.980469 268.574219 229.578125 270.121094 229.46875 271.703125 C 229.46875 274.125 230.824219 275.875 233.585938 275.875 C 236.347656 275.875 240.132812 273.28125 242.84375 269.617188 L 242.902344 269.617188 C 242.71875 270.375 242.625 271.148438 242.613281 271.929688 C 242.613281 273.957031 243.238281 275.875 246.058594 275.875 C 249.332031 275.875 251.871094 273.507812 254.355469 270.519531 L 252.265625 275.253906 L 259.09375 275.253906 L 264.566406 262.855469 C 267.671875 255.867188 270.773438 251.644531 273.648438 251.644531 C 274.144531 251.625 274.566406 251.996094 274.613281 252.488281 L 274.613281 252.65625 C 274.613281 253.839844 272.917969 257.050781 271.394531 260.261719 C 269.984375 263.191406 268.910156 265.445312 268.179688 267.195312 C 267.5 268.667969 267.097656 270.253906 266.996094 271.871094 C 266.996094 274.011719 268.179688 275.644531 270.832031 275.644531 C 274.78125 275.644531 278.789062 271.8125 280.929688 268.9375 C 280.445312 270.316406 280.179688 271.761719 280.140625 273.222656 C 280.140625 277.167969 282.507812 279.140625 285.839844 279.140625 C 288.050781 279.121094 290.203125 278.414062 291.992188 277.109375 C 294.585938 275.308594 296.675781 272.601562 298.425781 270.125 L 297.238281 268.996094 C 295.605469 271.304688 293.796875 273.503906 291.933594 274.855469 C 290.949219 275.6875 289.71875 276.164062 288.433594 276.210938 C 287.027344 276.210938 286.121094 275.476562 286.121094 273.675781 C 286.121094 271.875 286.964844 269.449219 288.265625 266.179688 C 288.320312 266.125 290.183594 261.953125 291.933594 257.953125 C 293.398438 254.570312 294.867188 251.300781 295.148438 250.625 L 299.605469 250.625 L 300.511719 248.597656 L 296.109375 248.597656 Z M 107.808594 271.585938 C 106.851562 271.585938 106.171875 271.25 106.171875 270.011719 C 106.230469 266.683594 108.992188 260.769531 112.4375 256.035156 C 114.863281 252.765625 118.023438 250.34375 121.410156 250.34375 L 117.121094 259.921875 C 113.902344 267.136719 110.40625 271.585938 107.808594 271.585938 Z M 150.015625 271.585938 C 149.058594 271.585938 148.382812 271.25 148.324219 270.011719 C 148.382812 266.683594 151.144531 260.769531 154.589844 256.035156 C 157.015625 252.765625 160.175781 250.34375 163.558594 250.34375 L 159.269531 259.921875 C 156 267.304688 152.671875 271.589844 150.015625 271.589844 Z M 224.949219 252.9375 C 224.78125 256.597656 221.566406 265.445312 217.785156 270.742188 C 216.265625 272.882812 214.964844 273.503906 213.839844 273.503906 C 212.257812 273.503906 211.800781 272.207031 212.027344 270.292969 C 212.367188 266.96875 215.132812 259.191406 218.972656 253.835938 C 220.722656 251.414062 221.90625 250.398438 223.261719 250.398438 C 224.613281 250.398438 225.007812 251.527344 224.949219 252.9375 Z M 330.265625 248.597656 L 336.480469 234.265625 L 329.125 234.265625 L 322.910156 248.597656 L 307.277344 248.597656 L 304.667969 254.605469 L 320.308594 254.605469 L 314.09375 268.9375 L 321.449219 268.9375 L 327.664062 254.605469 L 343.296875 254.605469 L 345.898438 248.597656 Z M 330.265625 248.597656 " fill-opacity="1" fill-rule="nonzero"/></g></svg>